<mxfile host="app.diagrams.net" modified="2024-02-20T11:18:17.100Z" agent="Mozilla/5.0 (Windows NT 10.0; Win64; x64) AppleWebKit/537.36 (KHTML, like Gecko) Chrome/121.0.0.0 Safari/537.36" etag="WqnT0TH1goBZL5BCYX7P" version="23.1.5" type="github">
  <diagram name="第 1 页" id="N2WunDhc6qPReS-geeKz">
    <mxGraphModel dx="3457" dy="1863" grid="1" gridSize="10" guides="1" tooltips="1" connect="1" arrows="1" fold="1" page="1" pageScale="1" pageWidth="827" pageHeight="1169" math="0" shadow="0">
      <root>
        <mxCell id="0" />
        <mxCell id="1" parent="0" />
        <mxCell id="cd91eSlOGsGhSM2sVP5u-1" value="" style="shape=image;verticalLabelPosition=bottom;labelBackgroundColor=default;verticalAlign=top;aspect=fixed;imageAspect=0;image=data:image/png,iVBORw0KGgoAAAANSUhEUgAABDgAAAJmCAYAAAC5RDAyAAAACXBIWXMAAAsTAAALEwEAmpwYAAAgAElEQVR4XuzdaXSV9b238WsnQMKQgAlTmGUIMlotQSmep4giQ62eoEfr0FZorYoHOairrlalFNRaWWqtRUVEtILlCMcB6rAUEBlUMGFQpgQCImJCSCAQyEAS8rzI4jbZgoKgssP1eXXv3/9339tso5Bv/kMoIyOjEkmSJEmSpAgWFV6QJEmSJEmKNHUOXyQnJ1evS5IkSZIknfIyMzMBZ3BIkiRJkqRawIBDkiRJkiRFPAMOSZIkSZIU8Qw4JEmSJElSxDPgkCRJkiRJEc+AQ5IkSZIkRTwDDkmSJEmSFPEMOCRJkiRJUsQz4JAkSZIkSRHPgEOSJEmSJEU8Aw5JkiRJkhTxDDgkSZIkSVLEO+kBR35+PllZWZSVlYUPfcXx9EqSJEmSJB1NnfDCt5Wens706dPZvXs3AHXr1qVTp06MGDGCtm3bfuveI5k/fz7PPvtseDlwxRVXcMUVV4SXJUmSJElSLXVSZnC8++67PPzww0FgAVBWVsbGjRu577772L59+7fqPZrPPvssvCRJkiRJkk5jJzyDY9++fcycOROAmJgYfvvb39K1a1fS0tKYMWMGhYWFTJ06lQkTJhxX79c5HHB06dKFIUOGhI1yTLNAJEmSJElS7XHCAce6desoKioCYNiwYfTv3x+AIUOG8Nlnn7Fo0SI2b95MdnY2n3766TH3JiUlVb3BEXz++ecA9OjRg379+oWNSpIkSZKk080JL1GpvqSkc+fO1UYgOTk5uE5PTz+u3qPJy8sLQpJ27dqRmZnJG2+8wYIFC9i2bVtYtyRJkiRJOh2c8AyOmJiY4Lr6vhoABQUFwfXu3btp3LhxjdfVhfceTfWQ5K233iIzM7PaKFx00UX8+te/pk6dE/7SJEmSJElShDjhFKBjx47B9Ztvvsl5551Ho0aNyMvLY/78+cHY3r17Oeecc46592iqbzD66aef0qtXL6Kioli3bh3l5eUsWLCApk2bcvnll1e769iFByaSJEmSJOnkqL5642Q74YCjV69enHXWWWzcuJEvvviC2267jaSkJHbs2EFFRUXQFx0dfVy9RxMKhejRowehUIhrrrmGM888E4BNmzYxYcIEKioqmDt3Lj//+c+JijrhFTiSJEmSJCkCnHDAAXD77bczdepUPvroI0pKSti6dSvx8fFce+21PPXUUwAkJiYed++RXHbZZVx22WXhZbp06ULv3r1ZtWoVxcXF7Nq1ixYtWoS3faPvMk2SJEmSJEnfjZMScDRq1IixY8eya9cutmzZQuPGjenQoQOrVq0Keg6finI8veEqKirYuXMnAPXq1aNp06Y1xhs1ahRcFxcXVxuRJEmSJEm12QkHHNnZ2bz++usAnHPOOZx33nnB2Pvvvw9UbUTap0+f4+oFKCoqCpauxMbGEhUVxR//+EcOHjxIbGws//jHP2jQoAEA5eXlbNiwAYC6devSpk0bJEmSJEnS6eGEA46EhASWLl3KwYMHWblyJc2bN6dVq1YsWLAgOO61f//+NGjQgOjo6GPuBbj//vvZunUrAKNHj6Zfv34kJyezdu1aSkpKePLJJ/nZz35Gw4YNmTNnDnl5eQCkpKR4iookSZIkSaeRE04BYmJiGD58OLNmzaKgoIC77rqL2NhYSkpKAOjUqRPXXnvtcfcezYgRI7j33nspKioiPT09CEYOS0xMZMSIETVqkiRJkiSpdjvhgAOqNv6sU6cOr7zyCgcOHKCkpIS4uDh69+7NiBEjghkZx9t7JElJSYwfP57Zs2eTlpZGZWUlUHXyyk9+8hN++ctf0rBhw7C7JEmSJElSbRbKyMiohJNzekhFRQW5ubmUl5fTpk0bQqFQeEvgeHqPprS0NNh0tFWrVi5LkSRJkiTpNJOZmQmcpBkch0VHRx/1BJRwx9N7NDExMbRr1y68LEmSJEmSTjNR4QVJkiRJkqRIY8AhSZIkSZIingGHJEmSJEmKeAYckiRJkiQp4hlwSJIkSZKkiGfAIUmSJEmSIp4BhyRJkiRJinh1wgvSiSgoKOCzzz4DoEWLFrRo0SKsI3JkZGRQWloKQO/evcNGJUmSJEmnEgOOWmjpJ9kUHKj6wfxY/UfPVjRuVC+8fNw2bNjA448/DsAVV1zBFVdcEdZxbFavXk12djYAF1xwAXFxcWEdNb2RXswbK0vCy19r2LmxDPtx/fByYOrUqXzxxRcAvPjii2Gjx2b//v0sWbIEgJYtW3LOOeeEdXx3jvczlCRJkqRIZsBRC1UcqqSiojK8/LUqOb7+79qSJUv44IMPAOjRo8c3/nBefghKy47vayg/FF45+fbt28cLL7wAQEpKyvcacBzvZyhJkiRJkcyAQzqK++67j0OHvocURJIkSZJ0wgw4dMw2bdrEJ598QkFBAfXq1aNly5acd955xzUzICsri6ysLLKzs0lISKB9+/b06tWLUCgEwK5du9i8eTN5eXnBPR9//DE7duygR48exMfHB/Xv2saNGykuLgagX79+AKSlpVFWVkZcXBw9e/Zk/fr1bNiwgYMHD9KmTRvOP/986tatC8CqVauCJSIAu3fv5oMPPiA+Pp4ePXoE9YKCAtatW8e2bdto2LAhXbp0oUuXLsFzAHbu3MmWLVsA6NatG1FRUaxcuZJt27aRmJhIr169aN++PXBqfYaSJEmS9H0x4NA3Ki8v57HHHiM9PT18iBdeeIHbbruNH//4x+FDNRw4cIDnnnuOZcuWhQ+RnJzMTTfdRFJSEuvXr2fKlCk1xg/vf3H33XfXCAa+azNmzAj24DgccEydOpXCwkI6d+7M+vXrefXVV6vfwhtvvMGf/vQnYmNjmT59eo2QISsri8cff5yzzjor+DqWLFnC888/T1FRUdAH0KlTJ+68804aN24MwJo1a3juuecAuOGGG/j3v/9d49nR0dH89re/5ac//ekp9RlKkiRJ0vfFY2L1jZYsWRKEG/369eOOO+7g+uuvp1GjRpSVlfH3v/+dkpKv3+Dz6aefDsKNtm3bMmjQILp37w5AZmYmDz30EGVlZbRp04ahQ4eSlJQU3HvBBRcwdOhQEhMTg9oPLSsri1dffZVmzZrRsWPHoL5t2zYWLVoEwIABA/iP//iPYKxFixYMHTqU888/H4CVK1fy5JNPUlRURIsWLbj44ovp3LkzUPX8CRMmHHGJzPPPP8+ePXvo2bMnsbGxAFRUVDBr1izKy8sj5jOUJEmSpJPJGRz6Rps2bQqu+/XrF8zWOOOMM/jwww+BqiUUh5dIhFu7di0fffQRAD179uSuu+4iOjoagH/961/MmzePnTt38u9//5vU1FQ6depEQUFBsLzj0ksvpV27dsHzTgWVlZVcf/31DB06lFAoxNy5c5k1axZQdbzskCFDGD58OF988UVwikq7du345S9/CVTNijk8I6NNmzZMnDiRmJgYAP7v//6P//u//yM7O5vly5cHs0cOa968OX/6059o0qQJRUVF3H777ezbt4+9e/eSk5NDp06dIuIzlCRJkqSTyRkc+kYtWrQIrv/+97/z2GOP8c4779C6dWvGjh3L2LFjjxpuQNXRsYcNGzYsCDcAfv7znwf7b1TviwSDBg0K/tl79eoV1Pfu3RtcH82OHTuCJSZnnnkmGRkZfPzxx3z88cc0b9486DvSkp6+ffvSpEkTABo0aBDM+oBje29JkiRJqo2cwaFvNHToULZu3cqKFSsoLy9n+fLlLF++HIDExESuvPJKfvrTn4bd9aXPP/88uG7VqlW1EWjUqBFxcXHs27ePHTt21Bg7lTVo0KDGJqDVQ6Dy8vLg+miqfyZLliwJZnmEO1JgccYZZ9R4XT0QqaioqDYiSZIkSacPAw59o3r16vE///M/5OTksHr1aj755BM2bNhASUkJ+fn5TJkyhYYNG9KnT5/wWwGoX79+cF1WVlZtpMrBgwcBgv0kIkH1WSjfRvWvtWvXrpx11lnVRr90pBNqoqJqTrw6PItEkiRJkk5nBhz6RmlpaZSUlNCwYUOGDBnCkCFDqKio4KWXXmLevHlA1SkfRws42rRpE1xnZGTQunXr4PX27duDDUqr91V3pI02I1H1ryP8a7366qtrvN6+fTvl5eU0atSoRv3bqi2foSRJkiQdjQGHvtHixYtJS0ujXr16TJo0iWbNmhEdHV1j343qyyTCnXfeecyZM4eDBw/y8ssv06VLF9q2bcu+fft49tlng77qJ45Un6XwwQcfEBsbS5MmTSJqlgfU/Dq2bNnC5s2bOeOMM2jevDldu3YlIyODzMxMlixZQkpKCqFQiPnz5zNz5kwAbrnlFpo1axY843jUls9Q0pc++OADZs+ezebNm0lMTKR3796kpqbSoUOHb9X3dQoKCvjzn/8MwIMPPhhshCxJknSqMuDQNxo4cCArV67k4MGD3HXXXfTq1Yvy8nLWrl0LVO1HkZKSEnbXl5o1a8ZVV13FjBkz2L17N3fddRdxcXHs37+fyspKAM4///waM0Cq79Uxb9485s2bx913302PHj2CeiRo1qwZ9erV4+DBg+zZs4dx48Zx1llnMW7cOEaOHMm4ceMoLS3lySef5JlnngG+XMbTpUsXfvKTn1R/3HGpLZ+hpCozZsxg2rRpwevCwkI+/fRT3n33XSZNmkTXrl2Pq+/rVFZW8sILL7B69WrA/X0kSVJkMOCohS7olRQEB8cqOmxfh+p+9KMfMXbsWObMmcO2bduCI18BkpOTuf7662nZsmW1O75q2LBhJCUl8c9//pOdO3dSWFgIVG0yOnz4cAYPHlyjf8iQIWzZsoXVq1cf01+sh/24PoN/dHwzE6Kjv/u9K6Kjo7npppt48cUXyc/PrzHWtm1bHnzwQaZNm8b69euDYKNu3br079+fX/3qVye018fxfoaSTl0ZGRnBjLdLLrmE3/3ud+zfv5+HHnqI9evX88ADD/D8888fc9/RLFu2jHXr1pGWllbjiHBJkqRIEMrIyKiEqh9UpW+ye/du9uzZQygUIjExkcaNG4e3fKP9+/eTk5NDYmLiV04ECVdRUcGBAweIjo6mYcOG4cMRpbi4mIMHD37lBBaomrWxY8cOoqKiaN68+UldRlKbPkPpdPWvf/2Lp59+mlAoxL///W8aNGgAwNq1axk9ejQAf/vb31i/fv0x9Z199tlVDw4zfvx43nvvvfAyr7/+evAsSZKkU01mZibgDA4dp4SEBBISEsLLx6VRo0Z07tw5vHxE0dHRxMfHh5cjUv369WucKFNd3bp1j2tt/PGoTZ+hdLrKzc0Fqv57rv7/kSZNmgTX69evP+a+owUcgwYNCk51SktLIz09PaxDkiTp1GXAIUnSKa5FixYAlJeXs27dOnr27AkQ7JEBsGfPnmPuO5r+/fsH1yUlJQYckiQpohx94wVJknRKGDBgAHXqVP1OYuLEicydO5eZM2cyefLkoKe4uPiY+yRJkmojAw5Jkk5xLVu2ZNSoUURHR5Obm8ujjz7KM888Q3JycrC3TkJCwjH3SZIk1UYuUZEkKQKkpqbSrVs3Fi1axK5du+jatSuDBw8mNTUVqDqW+nj6JEmSahsDDkmSTnG5ubls2LABgJEjR1KvXj0Ali5dSmVlJaFQiJSUlGPukyRJqo0MOCRJOsUVFxczfvx4AG666SZ+8YtfUFpayrRp0wA499xzadGiBdu2bTumPoDRo0dTWFhI48aNeeyxx5AkSYp0BhySJJ3i2rdvT58+fUhLS2PKlCksXLiQ7Oxs9u/fT3x8PKNGjTquPoDt27ezd+9e9+SQJEm1hpuMSpIUAcaNG8dFF11EKBRi06ZNlJSU0LNnTx555BE6dux43H2SJEm1TSgjI6MSIDk5OXxMkiSdYg4cOEBOTg6tW7cmNjY2fDhwrH2SJEmRLjMzE3CJiiRJEaVhw4Z06tQpvPwVx9onSZJUW7hERZIkSZIkRTwDDkmSJEmSFPEMOCRJkiRJUsQz4JAkSZIkSRHPgEOSJEmSJEU8Aw5JkiRJkhTxDDgkSZIkSVLEM+CQJEmSJEkRz4BDkiRJkiRFPAMOSZIkSZIU8Qw4JEmSJElSxDPgkCRJkiRJEa9OeEGSJH33bnxid3ip1pk6KiG8JEmS9J1xBockSZIkSYp4BhySJEmSJCniGXBIkiRJkqSIZ8AhSZIkSZIingGHJEmSJEmKeAYckiRJkiQp4p1yAUdZWRlZWVnk5eWFD33F8fRKkiRJkqTaq0544YdSVFTE9OnT+fDDD6moqACgadOm9O/fn6uuuopQKPSteiVJkiRJUu13SgQcBw8e5J577iEnJ6dGPS8vj9dee40DBw4wYsQIQqHQcfVKkiRJkqTTwymxROWVV14JAotzzjmHSZMmcd9999GpUycA5s+fzyeffHLcvZIkSZIk6fRwSgQcK1asACA2NpZbb72V1q1b07FjR2677bZgJsbixYuPu1eSJEmSJJ0efvCAo6ysjJ07dwKQlJREgwYNgrFmzZqRkJAAQHp6+nH1SpIkSZKk08cPvgdHnTp1iI6O5tChQ+zZs4fKyspgJkZ5eTn79+8HoLS0lIMHDx5zb1FRUY0A5FhlZmaGlyRJ+g40DS/UOv6ZKkmSwiUnJ4eXTpoffAZHKBTizDPPBKCgoIB33nknGHv11VcpLS0NXu/du/eYewsKCoJrSZIkSZJUu/3gMzgA/uu//ov7778fgOeee4533nmHgwcPsmvXLqKjo4OjYKOjo4+r99v4LtMkSZIC83eHV2od/0yVJEnfpx98BgdAjx49GDt2LI0aNQJgx44d7Nq1iwEDBnDuuecCVTM9EhISjqtXkiRJkiSdHk6JGRwAKSkpnH322WzZsoW9e/fSoUMHWrRowR133AFAYmIidevWPe5eSZIkSZJU+50SAcfrr79OdnY2derU4brrrgvCiW3btpGdnQ3ABRdccNy9kiRJkiTp9HBKBBzFxcUsXLgQgJiYGK688koKCgp46qmnAIiKimLgwIHH3StJkiRJkk4Pp0TAcckll/Dee++Rn5/PvHnzeOeddygpKQGq9tO4+eabadq06ji94+mVJEmSJEmnh1Nik9H4+Hj+8Ic/0KtXLwBKSkqC42P/+7//u8aSk+PplSRJkiRJp4dQRkZGJZw6R7kVFhaSm5tLUlISDRo0CB+u4Xh6JUk6ldz4RO0/JnbqKE80kyRJ373MzEzgFFmiUl1cXBxxcXHh5SM6nl5JkiRJklR7nRJLVCRJkiRJkk6EAYckSZIkSYp4BhySJEmSJCniGXBIkiRJkqSId8ptMipJp4r9+/fzzDPPsGrVKvbs2UP37t3p27cvqamphEKhoG/Pnj3MmjWLZcuWkZeXR+vWrenduzcjR4782o2QH3nkEbZv3x5eDrRp04Y77rgjvCxJkiTpCAw4JOkI8vPzGTVqFLm5uUFt+fLlLF++nM2bN3PnnXcSFRVFfn4+o0ePJjs7m1AoROPGjdm6dStbtmxh2bJlTJkyhTPOOKPak7+UkZERHGl1JAcOHAgvSZIkSToKAw5JOoJHHnmE3Nxc4uLiGDduHMnJySxevJhHHnmEN998kz59+jBw4EBefvllsrOzad68OY899hgtW7YkPz+fMWPGsGPHDv75z38yZsyY8McDcOWVV7Jnz54atfLycqZPn055eTldu3atMSZJkiTp6Aw4JCnMoUOHSE9PB2Do0KH06dMHgEsvvZRFixaRnp7OvHnzGDhwIPn5+QB07tyZli1bApCYmEinTp3YsWMHJSUlVQ89gkGDBoWXmD17NuXl5fTu3fuowYgkSZKkr3KTUUkKU1hYSGlpKQDx8fE1xpo0aQLAhg0bAEhJSQFgxYoVrF+/HoBNmzbx4Ycf1hg/Frt37+a5556jUaNG3HfffdSpYwYtSZIkHSv/9ixJYRo3bkxsbCwlJSWsWrWK6667DqhaPvLJJ58AUFpaSlFRERdddBF79+7liSee4NZbb6VRo0bs37+fUCjEbbfdxsCBA6s/+mtNmTKFoqIirrnmmq/dnFSSJEnSVzmDQ5KO4OKLLwYgPT2dv/71r7z11lv84Q9/qLHpaHFxMQUFBXzyySdUVFQAX24MWllZycqVK4MlLN9k3bp1vPPOO9SpU4crrrgifFiSJEnSN3AGhyQdwYgRI9i4cSObN2/mrbfe4q233qJOnTr07duXFStWEAqFaNKkCXfccQdr1qwhPj6e3//+96SkpJCVlcW9997L0qVL2bNnD//4xz/CH/8VTz/9NJWVlfTt25fExMTwYUmSJEnfwBkcknQECQkJTJ48mTFjxnDRRRdx5ZVX8uijj9KxY8dgvLi4mLVr1wIwbNgw+vfvT7169ejWrRvXXnstULVXR2FhYfDcI8nPzw+Wvvz4xz8OG5UkSZJ0LJzBIUlHsGLFCoqLi+nevTv/+Z//GdT/9re/AdC3b1927doVLE1p06ZN0APQoEEDoOpEll27dn3tnhrLli2jsrISgHPPPTdsVJIkSdKxMOCQpCN48803WbRoEYmJiTz//PM0bNiQt99+m6ysLKBqxkb79u2pX78+xcXFvPbaa1x44YU0aNCAkpIS5s6dC0D9+vXp0KEDCxYs4IUXXgDghhtuYMCAAYffilWrVtXolSRJknT8DDgk6QhSU1NZsmQJ+fn5XH311bRu3ZrMzEwALr30Unr27AnAr371K6ZMmcKmTZu47rrr6Ny5M1u3bg02Fx05ciRRUVEUFhaybds2oOoY2uo+++wzAJo2bVqjLkmSJOnYGXBI0hH07t2bcePGMXnyZHJzc8nMzCQxMZFLLrmEG2+8Mej7xS9+QaNGjXjxxRfJzs4mLS0NgKSkJH75y18ydOjQoPdIDh06xOeffw5As2bNwkYlSZIkHatQRkZGJUBycnL4mCSd9g4dOsTOnTupqKj4yj4b1VVWVrJ7927y8/NJTEz0JBR9oxuf2B1eqnWmjkoIL0mSJJ10h2daO4NDp4wPPviA2bNns3nzZhITE+nduzepqalf2ZPg/fffZ86cOWzevJno6Gg6derE8OHD+clPflKj70gKCwv53//9X1auXMmnn35Kq1atuOyyy7j00kuJivJQIX1VVFQUSUlJ4eWvCIVCBhuSJEnSD8gZHDolzJgxg2nTpoWXiYuLY9KkSXTt2hWAF198kalTpwJfnlJRVFQEwG9+8xuuv/76qhuPYM+ePdx5551s2bIFgNjYWEpKSgC4/PLL+Z//+Z/q7ZL0nXIGhyRJ0slxeAaHv7LWDy4jI4Nnn30WgEsuuYQ5c+bw3HPP0b17dwoLC3nggQeAqiBj+vTpAIwYMYJ58+bx+uuvc/PNNwMwffp09uzZU/XQI3j44YfZsmULZ555Jv/7v//LvHnz+PWvfw3Aa6+9FmwAKUmSJEmKPAYc+sGtXLmSyspKQqEQY8aMITExkfbt23PLLbcAVSdMrFmzhn379lFeXg5Av379giUlffv2Bar2Sjh48GDVQ8N88cUXvP/++wDccsstNG/enDp16vDLX/6SJ598kieffJImTZqE3SVJkiRJihQGHPrB5ebmAhAdHU39+vWDevXAYf369bRs2TLY5PGll16iqKiI4uJiZs+eDUDbtm1p0aJFcE91aWlpQYjSsWNHHn/8cf77v/+b++67j127dnHWWWfRuHHj8NskSZIkSRHCTUb1gzscSpSXl7Nu3Tp69uwJwOrVq4Oew0tPHnroISZMmMD8+fN57733iIqKorS0lOTkZCZOnBj0h8vLywOgfv363HnnnXz66afB2KJFi7jmmmv43e9+F9QkSZIkSZHFGRz6wQ0YMIA6daqytokTJzJ37lxmzpzJ5MmTg57i4mIANm7cSE5ODgBlZWXBkpScnBzWrFkT9Ic7HJAUFRVRUFDA3XffzYMPPkinTp0AmDVrVrD5qCRJkiQp8hhw6AfXsmVLRo0aRXR0NLm5uTz66KM888wzJCcn07BhQwASEhJYvXo1EyZMoKCggCFDhjBz5kxef/11hg8fzr59+3jggQdIS0sLe3qVuLi44HrUqFFcfPHFnHfeedx9990AVFZWBnt0SJIkSZIij0tUdEpITU2lW7duLFq0iF27dtG1a1cGDx5MamoqAM2aNePDDz8EoF69eowaNSoILW699VYWLlxIQUEBy5cvp0+fPsFzDzvjjDOC627dugXXZ555JjExMZSWlrJr166gLkmSJEmKLAYc+sHl5uayYcMGAEaOHEm9evUAWLp0abAxaEpKCh999BEA8fHxNWZkREVFERMTA8DOnTuDenU9evQIrnNycoLNSgsLCyktLQUgKSkp6JEkSZIkRRaXqOgHV1xczPjx4xk/fjwvv/wyAKWlpUybNg2Ac889lxYtWgQzL/Ly8nj77beD+xcvXhwEG4d7Ro8ezQ033MCYMWMA6N69exBgPPvssxQWFnLo0CGefvrpqocAvXr1Cq4lSZIkSZHFGRz6wbVv354+ffqQlpbGlClTWLhwIdnZ2ezfv5/4+HhGjRoFwJAhQ5g7dy7Z2dn85S9/4dVXXyU6Opp169YB0Lp1a4YNGwbA9u3b2bt3LwkJCcH7jBo1ivHjx7NhwwaGDx9OvXr1KCoqAuDCCy+sMctDkiRJkhRZnMGhU8K4ceO46KKLCIVCbNq0iZKSEnr27MkjjzxCx44dAWjSpAkPP/wwAwcOJCoqig0bNrB27VpCoRCDBg3i4YcfpnHjxmFP/tIFF1zAn/70Jzp27EhFRQVFRUXUq1ePq666ij/84Q/h7ZIkSZKkCBLKyMioBEhOTg4fk753Bw4cICcnh9atWxMbGxs+HCgtLSUnJ4fKykpatWoV7NtxrAoLC8nPz6dt27ZER0eHD0vSd+7GJ3aHl2qdqaO+nEUnSZL0XcnMzARcoqJTTMOGDenUqVN4+StiYmJo3759ePmYxcXF1dioVKcHf6CUJEmSai+XqEiSJEmSpIhnwCFJkiRJkv5swKkAACAASURBVCKeAYckSZIkSYp4BhySJEmSJCniGXBIkiRJkqSIZ8AhSZIkSZIingGHJEmSJEmKeAYckiRJkiQp4hlwSJIkSZKkiGfAIUmSJEmSIp4BhyRJkiRJingGHJIkSZIkKeIZcEiSJEmSpIhXJ7wgnQw3PrE7vFTrTB2VEF6SJOm0sX//fp555hlWrVrFnj176N69O3379iU1NZVQKBT07dmzh1mzZrFs2TLy8vJo3bo1vXv3ZuTIkcTFxVV74tc7cOAA9913HyUlJVx44YVcdtll4S2SpNOcAYckSZKOS35+PqNGjSI3NzeoLV++nOXLl7N582buvPNOoqKiyM/PZ/To0WRnZxMKhWjcuDFbt25ly5YtLFu2jClTpnDGGWdUe/LRPfTQQ3z44YcAdO3aNWxUkiSXqEiSJOk4PfLII+Tm5hIXF8ekSZN47bXXuOOOOwiFQrz55pssWrQIgJdffpns7GyaN2/Oiy++yCuvvMLs2bNp3bo1u3bt4p///GfNBx/Fyy+/zOLFi8PLkiTVYMAhSZKkY3bo0CHS09MBGDp0KH369CE+Pp5LL72Uc889F4B58+YBVTM9ADp37kzLli0BSExMpFOnTgCUlJTwTTIyMnjyySfp0qXLMc/2kCSdngw4JEmSdMwKCwspLS0FID4+vsZYkyZNANiwYQMAKSkpAKxYsYL169cDsGnTpmCpyeHxozlw4AB//vOfiY6O5u6776Zu3brhLZIkBdyDQ5IkScescePGxMbGUlJSwqpVq7juuusAKC8v55NPPgGgtLSUoqIiLrroIvbu3csTTzzBrbfeSqNGjdi/fz+hUIjbbruNgQMHVn/0V/z1r38lOzubMWPG0L59+/BhSZJqcAaHJEmSJEmKeAYckiRJOi4XX3wxAOnp6fz1r3/lrbfe4g9/+EONU1WKi4spKCjgk08+oaKiAqhacgJQWVnJypUrgz06juTll19myZIlnHfeefznf/5n+LAkSV9x0peo5OfnU1BQQLt27b52nWRlZSV5eXnk5+fTvHlzEhISwlskSZJ0ChoxYgQbN25k8+bNvPXWW7z11lvUqVOHvn37smLFCkKhEE2aNOGOO+5gzZo1xMfH8/vf/56UlBSysrK49957Wbp0KXv27OEf//hH+OPJycnhySefpE6dOlx22WVs3LgRgLKyMqDq75sbN26kQ4cOxMbGVr9VknQaO2kBR3p6OtOnT2f37t0A1K1bl06dOjFixAjatm1bo/eDDz5gzpw5ZGdnB7W4uDiuvvrqb1yLCTB//nyeffbZ8HLgiiuu4IorrggvS5Ik6SRISEhg8uTJvPHGG6xdu5YzzjiDn/70pyxbtowVK1aQkJBAcXExa9euBWDYsGH0798fgG7dunHttdfy+OOPs2HDBgoLC4mLi6v+eAoKCigvLwfg7rvvrjEGVX8XnD9/PpMnT6Z79+7hw5Kk09RJCTjeffddpk6dWqNWVlbGxo0bue+++7jnnnuCkGPx4sU89dRTAIRCIRo3bszevXspLCzkmWeeYe/evaSmplZ/1Fd89tln4SVJkiR9T1asWEFxcTHdu3evsXzkb3/7GwB9+/Zl165dwdKUNm3aBD0ADRo0AKqOnN21a9dXAg5Jkr6NEw449u3bx8yZMwGIiYnht7/9LV27diUtLY0ZM2ZQWFjI1KlTmTBhAgBz5swBqpL/u+++m6SkJAoLC3nooYfIysrilVdeYfDgwcEffEdyOODo0qULQ4YMCRvlKzNGJEmSdPK8+eabLFq0iMTERJ5//nkaNmzI22+/TVZWFlA1Y6N9+/bUr1+f4uJiXnvtNS688EIaNGhASUkJc+fOBaB+/fp06NCBBQsW8MILLwBwww03MGDAABYsWBC832HXXHMNubm5/Nd//Rc333wzUVFuJydJ+tIJBxzr1q2jqKgIqDn9cMiQIXz22WcsWrSIzZs3k52dTVxcHHl5eQD89Kc/JSkpCahanjJo0CCysrIoLy9n586dnHnmmVVvcASff/45AD169KBfv35ho5IkSfoupaamsmTJEvLz87n66qtp3bo1mZmZAFx66aX07NkTgF/96ldMmTKFTZs2cd1119G5c2e2bt0abC46cuRIoqKiKCwsZNu2bQAUFhYCfG14ERUV9bXjkqTT0wn/ybB9+/bgunPnztVGIDk5ObhOT0+nUaNGNG/eHKgKRqpbv349ALGxsbRr167GWHV5eXlBoNKuXTsyMzN54403WLBgQfAHoyRJkr47vXv3Zty4cTRv3pwDBw6QmZlJYmIi11xzDbfffnvQ94tf/II77riDpKQkCgoKSEtLIz8/n6SkJH7/+99z5ZVXVnuqJEkn5oRncMTExATXhzcYPaygoCC4Pjw2fPhwpk2bRmZmJpMmTaJnz55kZWWxfPlyoqKiuPLKK4mOjg7uC1c9UHnrrbeC3xYcdtFFF/HrX/+aOnW+3ZcW/jx9W03DC7WO3yuRyO9LnUr8flRka9myJRMmTCA/P59Dhw4Fv8TatGlTjb7k5GT+9Kc/sXfvXvbu3UuTJk1o3Lgx8OX3SPfu3ZkyZUpwz9G+dyZOnBhcH61HknRqqz4R4mT7dilANR07dgyu33zzTc477zwaNWpEXl4e8+fPD8b27t0LwP/7f/+P/fv3M2PGDFatWsWqVauCnksuuYRhw4YFr4+k+gajn376Kb169SIqKop169ZRXl7OggULaNq0KZdffnm1uyRJknSyhUIhmjb95rDu8LGxTZo0CR+SpFrt448/Zv78+Wzfvp0mTZrQuXNnLrzwQlq1alWjb82aNSxYsIDPP/+cqKgo2rRpw4UXXsjZZ59do+9ItmzZwrx589i+fTuHDh2iXbt2DB48mG7duoW31nonHHD06tWLs846i40bN/LFF19w2223kZSUxI4dO4KdswGio6MpKyvjiSeeYPny5UDVRqO9e/cmNzeX9evX8/bbb7N9+3bGjBlDfHx8cG91oVCIHj16EAqFuOaaa4K9OjZt2sSECROoqKhg7ty5/PznP/9WazO/yzTptDK/5mye2sjvlQjk96VOJX4/SpJUq82YMYNp06YFr4uKivjiiy9YtWoVkyZNomvXrgC8+OKLwamkDRo0oKKigg0bNrBhwwZ+85vfcP311wfPCLdw4UIeeughKisrg9rhe2+77bZvPKG0tjn+BOAIbr/9dlJSUgAoKSlh69atxMbGcuONNwY9iYmJrFu3Lgg3UlJSePzxx/nd737HPffcw9VXXw1U/cv48MMPg/vCXXbZZdx999388Y9/rLERaZcuXejduzcAxcXF7Nq1KxiTJEmSJOn7kpGRwbPPPgtUrVSYM2cOzz33HN27d6ewsJAHHngAqAo9pk+fDsCIESOYN28er7/+OjfffDMA06dPZ8+ePVUPDVNcXMzDDz9MZWUlKSkpPPXUUzz33HP86Ec/AuCpp56itLQ07K7a7aQEHI0aNWLs2LE89thjjBkzhnHjxvG3v/2NunXrBj1JSUmkp6cHrwcPHkwoFApeX3zxxcH1ypUrg+vqKioq+OKLL/jiiy+C01iqa9SoUXBdXFxcbUSSJEmSpO/HypUrqaysJBQKMWbMGBITE2nfvj233HILULX1wpo1a9i3bx/l5eUA9OvXL1iF0LdvXwAOHTrEwYMHqx4aZtOmTcEBHNdddx1du3alffv2wQbOBw8e/Mo+mbXdCS9Ryc7O5vXXXwfgnHPO4bzzzgvG3n//faBqI9I+ffoEZ6ND1Ydd3b59+4LrwxuEFhUVBctcYmNjiYqK4o9//CMHDx4kNjaWf/zjHzRo0ACA8vJyNmzYAEDdunVp06ZN1cMkSZIkSfoe5ebmAlVbNdSvXz+oV9+LaP369Zx99tm0adOGzz//nJdeeomxY8cSCoWYPXs2AG3btqVFixbBPdUlJycza9YsAJo1awZU/Vy8aNEiAJo3b05SUtLh9tPCCQccCQkJLF26lIMHD7Jy5UqaN29Oq1atWLBgQTBjo3///jRo0ICzzjqLd955B4CZM2fSsmVLWrZsSWFhYTAtB+Css84C4P7772fr1q0AjB49mn79+pGcnMzatWspKSnhySef5Gc/+xkNGzZkzpw5wayOlJSUb32KiiRJkiRJJ+JwKFFeXs66devo2bMnAKtXrw56Di89eeihh5gwYQLz58/nvffeIyoqitLSUpKTk2ucHhUuNjaW2NjY4PXYsWPJzMykqKiItm3bMmHChGrdp4cTTgFiYmIYPnw4s2bNoqCggLvuuovY2FhKSkoA6NSpE9deey0A5513Hu+//z7p6ens2LGD22+/ncaNG1NYWMihQ4cA6Nq1K4MHDw6eH27EiBHce++9FBUVkZ6eXmPZC1Tt9TFixIgaNUmSJEmSvi8DBgxg2rRplJeXM3HiRK677joKCwuZMWNG0HN4W4WNGzeSk5MDQFlZWbCVQ05ODmvWrGHQoEHBPV9n+/btwZKVffv2kZWVRYcOHWo21XLRo0ePHg9VwcC31bVrV+rXr09WVhZlZWWUl5cTFxdHSkoKo0ePDpaRhEIh+vTpQ926dfn8888pLS2ltLSUyspKGjRowM9+9jNGjBgRpFALFy6koKAAqApH2rZtS1xcHOeeey4FBQVkZ2cH/wzR0dFccMEF3H777TX24tAPY95HtX8PlMtSvpxqpsjg96VOJX4/SpJUezVq1Ii4uDjS0tLYv38/H374IStXrqR79+7s37+fsrIyzj//fEKhEH/84x8pKSlhyJAh/PnPf+Y3v/kNxcXFrF69miVLltCzZ8+vHCt7JEOHDmXgwIHs3r2bTZs2sXjxYvr06UPz5s3DW2ud/Px84CTM4Dhs2LBhDB48mNzcXMrLy2nTpk2NTUQPq1evHqmpqVx++eXs3r2bPXv20LhxY5o2bfqVY13vv//+Gq8Pa9OmDWPHjqW0tJSdO3cC0KpVK5elSJIkSZJOCampqXTr1o1Fixaxa9euYLXC4aNbmzVrFpwgWq9ePUaNGkVcXBwAt956a/AL/+XLl9OnT5/guYctW7aMrKwsmjZtyrBhw4iLiyMuLo4xY8awbNmyoOfw8pjTwUlNBKKjo495E5OoqCiaNm1K06ZNw4eOWUxMDO3atQsvS5IkSZL0g8nNzQ0OwRg5ciT16tUDYOnSpcHpKikpKXz00UcAxMfHB+EGVP28HBMTAxD8Uj/chg0bmDlzJnFxcVxyySXBL/yrnyjqMbGSJEmSJOlbKy4uZvz48YwfP56XX34ZqAobpk2bBsC5555LixYt6NatGwB5eXm8/fbbwf2LFy8Ogo3DPaNHj+aGG25gzJgxQNUpKgCFhYVMmzaNQ4cOUVBQwHPPPcdhhw/wOF2c1BkckiRJkiSd7tq3b0+fPn1IS0tjypQpLFy4kOzsbPbv3098fDyjRo0CYMiQIcydO5fs7Gz+8pe/8OqrrxIdHc26desAaN26NcOGDQOqNhHdu3cvCQkJAPzHf/wHvXv35uOPP2bWrFm8+uqrlJWVUVFRAUDPnj0ZOHAgpxNncEiSJEmSdJKNGzeOiy66iFAoxKZNmygpKaFnz5488sgjdOzYEYAmTZrw8MMPM3DgQKKiotiwYQNr164lFAoxaNAgHn74YRo3bhz25CqhUIj77ruPyy+/nDp16lBSUkJFRQV16tQhNTWV+++//7TbpzKUkZFRCV9Ob5FOhhuf2B1eqnWmjqpKThU5/L7UqcTvR0mSTg8HDhwgJyeH1q1bByeGHklpaSk5OTlUVlbSqlWrYN+OY1FRUcEXX3wR3Hu6BRuZmZmAS1QkSZKEoZskfVcaNmxIp06dwstfERMTQ/v27cPLxyQ6Opq2bduGl087LlGRJEmSJEkRz4BDkiRJkiRFPAMOSZIkSZIU8Qw4JEmSJElSxDPgkCRJkiRJEc+AQ5IkSZIkRTwDDkmSJEmSFPEMOCRJkiRJUsQz4JAkSZIkSRHPgEOSJEmSJEU8Aw5JkiRJkhTxDDgkSZIkSVLEM+CQJEmSJEkRr054QZIkSZIi0QcffMDs2bPZvHkziYmJ9O7dm9TUVDp06FCj7/3332fOnDls3ryZ6OhoOnXqxPDhw/nJT35So+/rFBQU8Oc//xmABx98kJiYmLAO1TY3PrE7vFTrTB2VEF6KKAYckiRJkiLejBkzmDZtWvC6sLCQTz/9lHfffZdJkybRtWtXAF588UWmTp0KQIMGDaioqCA9PZ309HR+85vfcP311wfPOJrKykpeeOEFVq9eDUBFRUVYh6QfgktUJEmSJEW0jIwMnn32WQAuueQS5syZw3PPPUf37t0pLCzkgQceAKCoqIjp06cDMGLECObNm8frr7/OzTffDMD06dPZs2dP1UOPYNmyZTz99NPcdNNNvPzyy+HDkn5gBhySJEmSItrKlSuprKwkFAoxZswYEhMTad++PbfccgsAn332GWvWrGHfvn2Ul5cD0K9fP6Kiqn4c6tu3LwCHDh3i4MGDVQ89gnfeeYd//etfbNq0KXxI0inAgEOSJElSRMvNzQUgOjqa+vXrB/UmTZoE1+vXr6dly5a0adMGgJdeeomioiKKi4uZPXs2AG3btqVFixbBPeEGDRrETTfdxE033cSPf/zj8GFJPzD34JAkSZIU0Q6HEuXl5axbt46ePXsCBHtkAMHSk4ceeogJEyYwf/583nvvPaKioigtLSU5OZmJEycG/UfSv3//4LqkpIT09PRqo5J+aM7gkCRJkhTRBgwYQJ06Vb+7nThxInPnzmXmzJlMnjw56CkuLgZg48aN5OTkAFBWVhYsScnJyWHNmjVBv6TIY8AhSZIkKaK1bNmSUaNGER0dTW5uLo8++ijPPPMMycnJNGzYEICEhARWr17NhAkTKCgoYMiQIcycOZPXX3+d4cOHs2/fPh544AHS0tLCni4pUrhERZIkSVLES01NpVu3bixatIhdu3bRtWtXBg8eTGpqKgDNmjXjww8/BKBevXqMGjWKuLg4AG699VYWLlxIQUEBy5cvp0+fPsFzJUUOAw5JkiRJES03N5cNGzYAMHLkSOrVqwfA0qVLg9NVUlJS+OijjwCIj48Pwg2AqKgoYmJiANi5c2dQlxRZXKIiSZIkKaIVFxczfvx4xo8fz8svvwxAaWkp06ZNA+Dcc8+lRYsWdOvWDYC8vDzefvvt4P7FixcHwcbhntGjR3PDDTcwZsyYoE/Sqc0ZHJIkSZIiWvv27enTpw9paWlMmTKFhQsXkp2dzf79+4mPj2fUqFEADBkyhLlz55Kdnc1f/vIXXn31VaKjo1m3bh0ArVu3ZtiwYQBs376dvXv3kpCQELyPpFObMzgkSZIkRbxx48Zx0UUXEQqF2LRpEyUlJfTs2ZNHHnmEjh07AtCkSRMefvhhBg4cSFRUFBs2bGDt2rWEQiEGDRrEww8/TOPGjcOeLClSOINDkiRJUsSLi4vjnnvuYezYseTk5NC6dWtiY2PD20hKSuLee+/l97//PTk5OVRWVtKqVatg347DXn311Rqvw91www3ccMMN4WVJPyADDkmSJEm1RsOGDenUqVN4+StiYmJo3759eFlSBHOJiiRJkiRJingGHJIkSZIkKeIZcEiSJEmSpIhnwCFJkiRJkiKeAYckSZIkSYp4BhySJEmSJCniGXBIkiRJkqSIZ8AhSZIkSZIingGHJEmSJEmKeAYckiRJkiQp4hlwSJIkSZKkiGfAIUmSJEmSIp4BhyRJkiRJinh1wguSJEmSdCq48Ynd4aVaZeqohPDSaeWDDz5g9uzZbN68mcTERHr37k1qaiodOnQAYN26dTzzzDM1bwrz29/+lh49eoSXA9/0HqpdDDgkSZIkSd+rGTNmMG3atOB1YWEhn376Ke+++y6TJk2ia9eu7Nu3j9WrV1e766v27t0bXgocy3uodjHgkCRJkiR9bzIyMnj22WcBuOSSS/jd737H/v37eeihh1i/fj0PPPAAzz//PB06dOCWW24JuxvS09NZsWIF9evXp127duHDwLG/h2oXAw5JkiRJ0vdm5cqVVFZWEgqFGDNmDA0aNCAxMZFbbrmF0aNH89lnn7FmzRrOPvtsrrrqqhr3FhcX89JLLxEVFcW4ceNo06ZNjfHDjuc9VHu4yagkSZIk6XuTm5sLQHR0NPXr1w/qTZo0Ca7Xr18fXFf3z3/+k/z8fK6//nrOP//88OHAibyHIpcBhyRJkiTpe9OiRQsAysvLWbduXVCvvt/Gnj17guvDtm/fzpw5c4iJieHKK68MH67h276HItspF3CUlZWRlZVFXl5e+NBXlJSUsHXrVrZu3UpZWVn4sCRJkiTpFDNgwADq1KnaLWHixInMnTuXmTNnMnny5KCnuLg4uD7s73//O+Xl5QwdOpS4uLjw4Rq+7Xsosp0ye3AUFRUxffp0PvzwQyoqKgBo2rQp/fv356qrriIUCgW9e/fuZdasWSxdujTojYqKonfv3owcOZKmTZsGvZIkSZKkU0fLli0ZNWoUkydPJjc3l0cffRSA3r17k5WVxYEDB0hIqHmE7qpVq0hLSwNg2LBhNcaO5Nu8hyLfKRFwHDx4kHvuuYecnJwa9by8PF577TUOHDjAiBEjCIVCFBcX8+CDD7Jt2zYAYmNjiYqKoqioiNWrV3PPPfcwadKkb0z0JEmSJEk/jNTUVLp168aiRYvYtWsXXbt2ZfDgwaSmpgLQrFmzGv2LFi0CID4+ns6dO9cYO5rjfQ9FvlMi4HjllVeCcOOcc87h2muvpbS0lOnTp/P/2bvv8KrL+//jz5MEEkYCJAwDyJAlgqAIjqIV0aJSRalbqBVrHVi01FovHPyooq2jqK1UKaA4v/0qX/egMis4igS0sgQCmoiBDEhIIBPO749c+TTn4EJWTng+/vrkfd/3iXLd10nyOvfIzMxkzpw59O/fnz59+vDRRx8F4cZ5553HhRdeSHx8PAsXLuSxxx5j27ZtvPHGG1x22WW1v4UkSZIkqQ7Izc1l1apVAFx11VU0bNgQgEWLFgU3nwwYMCDoHw6HWbRoEVD992Lt1f3fZE+/h+qHOnEGx+LFi4Hq1Rg33HAD7dq144gjjuDGG28MJu+7774LwIYNG4DqLSkXXHAB8fHxAJxyyinB1pSNGzciSZIkSap7SktLmTBhAhMmTOCll14CoLy8nOnTpwPQr1+/4JBQgKysLLZs2QJAz549g3ptY8aM4corr+Smm24C9vx7qH446Cs4Kisr2bx5MwDp6ek0btw4aGvVqhWpqakUFBSQkZEBwBFHHAHArl27WL16Nb179wZg8+bNFBQUANCtW7fqF5AkSZIk1SkdO3akf//+LFmyhClTpjBv3jxycnIoKSkhJSWF0aNHR/TPysoKnr9pW0l2djZFRUXBuRp7+j1UPxz0FRwJCQnBKoytW7cSDoeDtqqqKkpKSoDqtG3Hjh3069cvCDAee+wxnn/+eV566SUeeOABwuEwHTp04JRTTgleQ5IkSZJUt4wfP57TTz+dUCjE2rVrKSsro3fv3kyaNCn4ULvG9wk4vs6efA/VDwd9BUcoFKJz586sWbOGwsJCZs+ezZAhQwB45ZVXKC8vD/oWFhbStm1bbrnlFm6//Xby8vJ44403gvbGjRszduzYvToNd82aNdEl/SD1/yYb50oscl6qLnE+qq5xTqouqt/z8lCfkxdffDHnnnsuBQUFtGrVisTERHbu3Lnbv8uAAQMizsuIbge4//77g+fa7d/3e3w/9Xs+wtf/2+5r3bt3jy7tMwc94AC46KKLuOeeewCYMWMGs2fPpqKigry8POLj44OrYOPj4/nkk094/PHHKSoqIj4+np49e9KyZUuWLl3Ktm3bGDduHFdccQWDBg2q9R0kSfXdjh07ePXVV1m9ejXbtm3jiCOOoHfv3gwaNCg4z+m5557b7cau2tq0acPIkSOjy4Ft27bxzjvv8Mknn1BYWEirVq3o1q0bw4YNo0mTJtHdJUnSd2jUqBHt27ePLu9TB+J7qG6oEwFHr169GDt2LFOnTqWkpCQ4JHTQoEFs376djz76iFAoRGpqKo8++ihFRUUATJw4kY4dOwLVv3TedtttbNmyhX/84x+ceuqp3+t03Wj7M006pMypPgSoPnOuxCDnZb1VUFDAnXfeSW5ublBbvnw5y5cvp6ioiN/97nfExcWxadOmb/1kIhwOf+O/YUFBARMmTCAnJ4dQKESzZs346quv2LhxIytWrGDKlCm0aNEietg3cz6qrnFOqi6q5/PSORlj6vl8hNifk3Ui4IDqZUd9+/Zl/fr1FBUV0alTJ9q0acPNN98MQFpaGtu3b2f9+vVA9em5NeEGVN+HfPzxxzNr1iy2bdtGZmbm974fWZIU2yZNmkRubi7JycmMHz+e7t278+677zJp0iTefvtt+vfvz+DBg7nwwgvZunVrxNiqqiqefPJJqqqq6NGjR0RbbS+99BI5OTm0bt2aRx55hMMOO4yCggJuuukmNm7cyNNPPx2c3C5JkqQDr04EHG+++SY5OTkkJCQwYsQIGjRoAMAXX3xBTk4OACeffDJxcXHBIaQVFRXB+Brbtm0LnmsOLpUk1W+7du0Kbto6++yz6d+/PwDnnHMOCxYsICMjg9dff53Bgwfzk5/8pPZQAF588UWqqqro06fPtwYUNTd1de3alcMOOwyoDt+7dOnCxo0bKSsrq91dkiRJB9hBv0UFqu8onjdvHu+88w4zZ86ksrKSvLw8Hn/8cQDi4uIYPHgwKSkppKenA5CZmcnrr7/Orl27APj3v//Nhx9+CFQfNlp7dYckqf4qLi4ODqROSUmJaGvevDkAq1atiqjX2LJlCzNmzKBp06ZMnDiRhIRvzv1rDjdbvHgxK1euBGDt2rXBz57ah59JkiTpwPvm3+QOoCFDhvCvf/2LgoICXn/9dWbPnh18EhYKhbjuuuto2bL6xNprrrmGaMlZ8gAAIABJREFUe++9l8rKSv7nf/6Hl156iYSEBLZv3x70v/7664mLqxPZjSRpP2vWrBlJSUmUlZWxbNkyRowYAVRvPfn000+B/1413rhx49pDmTJlCjt27OCyyy4jOTk5oi3a6aefTlFREX/729+44YYbaNq0KSUlJYRCIW688UYGDx4cPUSSJEkHUJ1IAVJSUhg3bhxHH300AGVlZcH1sb/+9a85+eSTg749evTgjjvuoG/fvkD1L6014caRRx7JbbfdxnHHHRf0lyTVf2eccQYAGRkZ3HfffcyaNYtx48ZFHDpaWloaPAOsWLGC2bNnk5CQwAUXXBDR9nUKCwv59NNPg5u9an72hMNhli5dGmxhkSRJ0sFRJ1ZwALRt25Zx48ZRXFxMbm4u6enpu33SVqNbt27ceuutlJaWkpuby65du2jTps039pck1W+jRo1i9erVrFu3jlmzZjFr1iwSEhI4/vjjWbx4MaFQKNiuUuPvf/874XCY448/nrS0tIi2rzNhwgQ++eQTUlJS+P3vf8+AAQPIzMzkzjvvZNGiRWzdupVHH300epgkSZIOkDoTcNRITk7+zmXCNRo1auRZG5IkUlNTmTx5Mm+99RbLly+nRYsWnHrqqbz33nssXryY1NTUiMOnCwoKgu0r32fVX0lJCcuXLwdg6NChDBw4EKi+0evyyy/nr3/9K6tWraK4uPh7/wyTJEnSvlXnAg5JkvbU4sWLKS0t5aijjuL8888P6g8//DAAxx9/fFADeO+994Jbufr16xfR9nXy8vKCrSnt27ePaKtZPbhr1y7y8vIMOCRJkg4SAw5JUsx7++23WbBgAWlpaTz11FM0adKEd955h8zMTKB61UVty5YtA6pXAnbq1CmiDWDu3Lk888wzAFx55ZX8+Mc/plGjRpSWlvLqq69y2mmn0bhxY8rKynjttdeAb34tSZIkHRgGHJKkmDd8+HAWLlxIQUEBl1xyCe3atWPNmjUAnHPOOfTu3Tuif1ZWFkBwQ1e04uJivvjii+A5Li6OK664gilTprB27VpGjBhB165d2bBhQ3C46FVXXeUNXpIkSQeRAYckKeb16dOH8ePHM3nyZHJzc1mzZg1paWkMGTKEX/3qVxF9d+3axZdffglAq1atItq+zaWXXkrTpk15/vnnycnJYcmSJQCkp6fz85//nLPPPjtqhCRJkg4kAw5JUr3w4x//mJNPPpnNmzezc+fO3c7KqBEXF8c///nP6HKE888/P+IsjxrnnHMOP/3pT9myZQsFBQWkpaV9rxtYJEmStP8ZcMSIDz74gBdffJF169aRlpZGnz59GD58eLDfe8WKFUybNi1yUJSrr76aXr16RZf3aqwk1SVxcXGkp6dHl/epUChksCFJUpRX39sQXaqHmkUXVMcYcMSAZ599lunTpwdfFxcX8/nnnzN//nweeOABevTowbZt2/j4449rjdpdUVFRdAlgr8ZKkiRJklQXGHDUcZ999hlPPPEEAEOGDOGaa66hpKSE+++/n5UrV3Lvvffy1FNP0alTJ66//vqo0ZCRkcHixYtp1KgRHTp0iG4G2KuxkiRJkiTVBQYcddzSpUsJh8OEQiFuuukmGjduTFpaGtdffz1jxowhKyuLTz75hL59+3LxxRdHjC0tLeWFF14gLi6O8ePHf+N+9PT09B88VpIkSZKkusD77Oq43NxcAOLj42nUqFFQb968efC8cuXK4Lm2p59+moKCAkaOHMmJJ54Y3fyt9masJEmSJEkHmgFHHdemTRsAqqqqWLFiRVCvfWbG1q1bg+ca2dnZzJw5k8TERC688MLo5m+1N2MlSZIkSToYDDjquEGDBpGQUL2T6O677+a1117jueeeY/LkyUGf0tLS4LnGX/7yF6qqqjj77LNJTk6Obv5WezNWkiRJkqSDwYCjjjvssMMYPXo08fHx5Obm8tBDDzFt2jS6d+9OkyZNAEhNTY0Ys2zZMpYsWQLA0KFDI9q+y96MlSRJkiTpYPGQ0RgwfPhwevbsyYIFC8jLy6NHjx6ceeaZDB8+HIBWrVpF9F+wYAEAKSkpdO3aNaLtu+zNWEmSJEmSDhYDjjouNzeXVatWAXDVVVfRsGFDABYtWhTcrjJgwICgfzgcZtGiRQAce+yxhEKhoO277M1YSZIkSZIOJgOOOq60tJQJEyYAcO2113LppZdSXl7O9OnTAejXr19wEClAVlYWW7ZsAaBnz55BvbYxY8ZQXFxMs2bNeOSRR4L69xkrSZIkSVJdZMBRx3Xs2JH+/fuzZMkSpkyZwrx588jJyaGkpISUlBRGjx4d0T8rKyt4jt66UiM7O5uioqLdzu74PmMlSZIkSaqLPGQ0BowfP57TTz+dUCjE2rVrKSsro3fv3kyaNIkjjjgiou/ehBR7M1aSJEmSpIPJFRwxIDk5mTvuuIOxY8eyadMm2rVrR1JSUnQ3AEaMGMGIESOiyxFeeeWV6BLw/cZK0oHy6nsbokv1TLPogiRJkvaCAUcMadKkCV26dIkuS5IkSZJ0yHOLiiRJkiRJinkGHJIkSZIkKeYZcEiSJEmSpJhnwCFJkiRJkmKeAYckSZIkSYp5BhySJEmSJCnmGXBIkiRJkqSYZ8AhSZIkSZJingGHJEmSJEmKeQYckiRJkiQp5hlwSJIkSZKkmGfAIUmSJEmSYl5CdEEHxqvvbYgu1TPNoguqhz744ANefPFF1q1bR1paGn369GH48OF06tQJgBUrVjBt2rTIQVGuvvpqevXqFV0GoKioiAkTJkSXAw899FB0SZIkSdIhyoBD0g/y7LPPMn369ODr4uJiPv/8c+bPn88DDzxAjx492LZtGx9//HGtUbsrKiqKLgUyMzO/c7wkSZIkgQGHpB/gs88+44knngBgyJAhXHPNNZSUlHD//fezcuVK7r33Xp566ik6derE9ddfHzUaMjIyWLx4MY0aNaJDhw7RzYHMzEwAjjzySG644YaoVkmSJEn6LwMOSXts6dKlhMNhQqEQN910E40bNyYtLY3rr7+eMWPGkJWVxSeffELfvn25+OKLI8aWlpbywgsvEBcXx/jx42nfvn1Ee23r168H4KijjqJ3795RrZIkSZL0XwYckvZYbm4uAPHx8TRq1CioN2/ePHheuXIlffv2Db6u8fTTT1NQUMAVV1zBiSeeGN0coWYFR9OmTfl//+//sXLlSlq0aMHAgQP5+c9/Tlyc5yRLkiRJqmbAIWmPtWnTBoCqqipWrFgRrK6ofV7G1q1bg+ca2dnZzJw5k8TERC688MLo5gi7du3i888/B+CZZ54hHA4DkJ+fz9q1a8nMzOSuu+6qNUKSJEnSocyPPyXtsUGDBpGQUJ2P3n333bz22ms899xzTJ48OehTWloaPNf4y1/+QlVVFWeffTbJycnRzRGys7OprKwE4NRTT2X69On8/e9/p0+fPgAsXLjQA0glSZIkBVzBIWmPHXbYYYwePZrJkyeTm5sbXNfap08fMjMz2b59O6mpqRFjli1bxpIlSwAYOnRoRNvXOeyww3j22WcBSE9PD7aj3HnnnVx88cWEw2GWLFnCMcccU3uYJEmSpEOUAYekH2T48OH07NmTBQsWkJeXR48ePTjzzDMZPnw4AK1atYrov2DBAgBSUlLo2rVrRNvXSUxMpF27dtFlWrZsSbNmzSgsLGTz5s3RzZIkSZIOUQYckvZYbm4uq1atAuCqq66iYcOGACxatCi4XWXAgAFB/3A4zKJFiwA49thjCYVCQds3mTFjBrNnzyY+Pp5HH32UlJQUAIqLiykqKgL41htYJEmSJB1aDDgk7bHS0lImTJgAwLXXXsull15KeXk506dPB6Bfv37BQaQAWVlZbNmyBYCePXsG9drGjBlDcXExzZo145FHHuGwww7jq6++AmDq1Klcc801NGzYkIceeig4cLRfv361X0KSJEnSIcyAQ9Ie69ixI/3792fJkiVMmTKFefPmkZOTQ0lJCSkpKYwePTqif1ZWVvAcvXWlRnZ2NkVFRcHZHaeddhovvfQSa9eu5Y033uCf//wnQHDw6NChQzn66KOD8ZIkSZIObd6iIukHGT9+PKeffjqhUIi1a9dSVlZG7969mTRpEkcccURE3+8TcERLTEzkT3/6E2effTbx8fFUVlZSWVlJUlISV199NWPHjo0eIkmSJOkQ5goOST9IcnIyd9xxB2PHjmXTpk20a9eOpKSk6G4AjBgxghEjRkSXI7zyyivRJVJTU/n973/Pb37zG3JycoiPj6dt27bBjSqSJEmSVMOAQ9JeadKkCV26dIku71MNGzakY8eO0WVJkvQ9lZSUMG3aNJYtW8bWrVs56qijOP744xk+fHhw+PekSZPIzs6OGvlf7du35+abb44uf63t27czceJEysrKOO200xg2bFh0F0na5ww4JEmSpHqsoKCA0aNHk5ubG9T+/e9/8+9//5t169bxu9/9jri4OD777DPWrFlTa2Sk7du3R5e+0f3338+HH34IQI8ePaJaJWn/MOCQJEmS6rFJkyaRm5tLcnIy48ePp3v37rz77rtMmjSJt99+m/79+zN48GAuvPBCtm7dGjG2qqqKJ598kqqqqu8dVLz00ku8++670WVJ2u8MOCRJkqR6ateuXWRkZABw9tln079/fwDOOeccFixYQEZGBq+//jqDBw/mJz/5Se2hALz44otUVVXRp08fbrrppujm3Xz22Wc89thjdOvWjfz8/N0CE0nanzypT5IkSaqniouLKS8vByAlJSWirXnz5gCsWrUqol5jy5YtzJgxg6ZNmzJx4kQSEr79s9Ht27fzhz/8gfj4eG6//XYaNGgQ3UWS9isDDkmSJKmeatasWXDL2bJly4J6VVUVn376KQDl5eXs2LEjaKsxZcoUduzYwbnnnktycnJ0827uu+8+cnJyuO666zwcXNJBYcAhSZIk1WNnnHEGABkZGdx3333MmjWLcePGRRw6WlpaGjwDrFixgtmzZ5OQkMAFF1wQ0fZ1XnrpJRYuXMgJJ5zA+eefH90sSQfEPg84CgoKyMzMpLKyMrpJkiRJ0gE2atQounbtCsCsWbO47777+Pjjjzn++OMBCIVCwXaVGn//+98Jh8Mcf/zxpKWlRbRF27RpE4899hgJCQkMGzaM1atXs3r16uDvgYKCAlavXk1ZWVnUSEnat759I90eyMjI4Mknn2TLli0ANGjQgC5dujBq1CgOP/xwANatW8f48eNrD/taY8aM4aSTToouB+bMmcMTTzwRXQ5ccMEF3ytpliRJkuq71NRUJk+ezFtvvcXy5ctp0aIFp556Ku+99x6LFy8mNTWV+Pj4oH9BQUGwfeW4444L6t+ksLCQqqoqAG6//fao1urf3efMmcPkyZM56qijopslaZ/ZJwHH/PnzmTp1akStsrKS1atXM3HiRO64444g5NgXsrKyokuSJEmSvsbixYspLS3lqKOOitg+8vDDDwMEKzlqvPfee4TDYQD69esX0SZJddleBxzbtm3jueeeAyAxMZGrr76aHj16sGTJEp599lmKi4uZOnUqd911F8nJyZx88slRr1Bt5cqVbNmyhVAoRKtWraKbI9QEHN26deOss86KamWfhimSJElSLHv77bdZsGABaWlpPPXUUzRp0oR33nmHzMxMAIYOHRrRv+Yw0kaNGtGpU6eINoC5c+fyzDPPAHDllVcyaNAg5s6dG9ULLrvsMnJzc7nooou47rrriIvb57vjJSnCXgccK1asCE5dHjp0KAMHDgTgrLPOIisriwULFrBu3TpycnJIT09n9OjRtYcDkJubyy233ALApZdeGuwR/CZffvklAL169frWrSySJEnSoW748OEsXLiQgoICLrnkEtq1a8eaNWsAOOecc+jdu3dE/5oPE1u2bBlRr1FcXMwXX3wRPAPfGl7ExcV9a7sk7St7/U6TnZ0dPEcHE927dw+eMzIyarVEmjFjBpWVlQwcOJBzzz03ujlCfn5+EKh06NCBNWvW8NZbbzF37tzgjVaSJElStT59+jB+/Hhat27N9u3bWbNmDWlpaVx22WX89re/jei7a9eu4MPE71pVLUl1zV6v4EhMTAyeaw4YrVFYWBg8R7fV+Oijj/j4449p0KABI0eOjG7eTe1AZdasWUH6XOP000/nF7/4BQkJP+x/Lfr19p8G0QXFmAM3V7TvfP0nUfVJ/ZqXvk/Guvo1Hw8FvkfWZ4cddhh33XUXBQUF7Nq1i9atWwOwdu3aqJ7w17/+NXj+un+zo446iilTpgRff10fgLvvvjt4/qY+361+z8sf/u9SF/lzuz44EHOy9kKIfe2HpQC1HHHEEcHz22+/zQknnEDTpk3Jz89nzpw5QVtRUVHwXKO8vDzYv3faaafRrFmzqB67q33A6Oeff87RRx9NXFwcK1asoKqqirlz59KyZUvOO++8WqMkfZtVef5AkiSpvguFQt+47USS6oO9DjiOPvpojjzySFavXs1XX33FjTfeSHp6Ohs3bmTnzp1Bv9pXT9V4+eWXyc/PJy4ujnPOOSe6+WuFQiF69epFKBTisssuo3PnzkB1+nzXXXexc+dOXnvtNc4999wftNdvf6ZJta3K2xBdUow5UHPlQHA+1h/OS9Ul9Wk+HhLmfP1q2/rEORmD6vm8rE9z0p/b9UOsz8k9TwC+xm9/+1sGDBgAQFlZGRs2bCApKYlf/epXQZ+0tLTgGaCiooJ33nkHqD674/umycOGDeP222/ntttuC8INqL5RpU+fPgCUlpaSl5cXtEmSJEmSpPptr1dwADRt2pSxY8eSl5fH+vXradasGZ06dQqumAJIT0+vNQI++eQTysrKgOpVIN/Hzp072bx5MwANGzbcLRRp2rRp8FxaWlqrRZIkSZIk1Wd7HXDk5OTw5ptvAnDsscdywgknBG3vv/8+UH0Qaf/+/YM6wIcffhg89+3bt1bLf+3YsSPY5pKUlERcXBy33XYbFRUVJCUl8eijj9K4cWMAqqqqWLVqFQANGjSgffv2wetIkiRJkqT6ba8DjtTUVBYtWkRFRQVLly6ldevWtG3blrlz5wZXww4cODAIImrUPp21Q4cOtVr+65577mHDhuq9XGPGjOGkk06ie/fuLF++nLKyMh577DF++tOf0qRJE2bOnEl+fj4AAwYM+MG3qEiSJEmSpNiz1ylAYmIiP/vZz/jHP/5BYWEht956K0lJScH2ky5dunD55ZdHjCkrKwuujW3atCkNGzaMaP82o0aN4s4772THjh1kZGQEIUqNtLQ0Ro0aFVGTJEmSJEn12z45ZHTYsGGMHDmSJk2aANUBRnJyMgMHDmTcuHG7rd7IyckhHA4Dux8++l3S09OZMGECAwYMIBQKBfX4+HhOOeUU/vjHPwb/HZIkSZIk6dCw1ys4agwdOpQzzzyT3NxcqqqqaN++fUQAUVvnzp15/vnno8u7ueeee6JLALRv356xY8dSXl4eHDratm1bt6VIkiRJknSI2qeJQHx8/G63pexPiYmJ33h+hyRJkiRJOnTsky0qkiRJkiRJB5MBhyRJkiRJinkGHJIkSZIkKeYZcEiSJEmSpJi3Tw8ZlSRJUrUPPviAF198kXXr1pGWlkafPn0YPnw4nTp1AmDFihVMmzYtclCUq6++ml69ekWXAzk5OUyfPp3Vq1ezdetWOnTowLBhwzjzzDOJi/NzrPrs1fc2RJfqqWbRBUn6RgYckiRJ+9izzz7L9OnTg6+Li4v5/PPPmT9/Pg888AA9evRg27ZtfPzxx7VG7a6oqCi6FFixYgW33nor27dvD2qrV69m9erVLF26lNtvv71Wb0mS6j8DDkmSpH3os88+44knngBgyJAhXHPNNZSUlHD//fezcuVK7r33Xp566ik6derE9ddfHzUaMjIyWLx4MY0aNaJDhw7RzQBUVVVx3333sX37dg4//HBuvvlmGjRowHPPPcf777/PnDlzOPPMM+nfv3/0UEmS6i0DDkmSpH1o6dKlhMNhQqEQN910E40bNyYtLY3rr7+eMWPGkJWVxSeffELfvn25+OKLI8aWlpbywgsvEBcXx/jx42nfvn1Ee42NGzeSnZ0NwC9/+Uv69u0LwHXXXcf7778PwMqVKw04JEmHFDdnSpIk7UO5ubkAxMfH06hRo6DevHnz4HnlypXBc21PP/00BQUFjBw5khNPPDG6ObB161bS0tJIS0ujW7duQT0UCgXPzZp5doEk6dDiCg5JkqR9qE2bNkD1NpIVK1bQu3dvgIjzNrZu3Ro818jOzmbmzJkkJiZy4YUXRjdHOOaYY5g5c2ZELRwOB1tjQqFQsKpDkqRDhSs4JEmS9qFBgwaRkFD9GdLdd9/Na6+9xnPPPcfkyZODPqWlpcFzjb/85S9UVVVx9tlnk5ycHN38rYqLixk/fjzz588H4OKLLw5ua5Ek6VBhwCFJkrQPHXbYYYwePZr4+Hhyc3N56KGHmDZtGt27d6dJkyYApKamRoxZtmwZS5YsAWDo0KERbd9lxYoV/PKXv2TRokWEQiFGjBjBtddeG91NkqR6zy0qkiRJ+9jw4cPp2bMnCxYsIC8vjx49enDmmWcyfPhwAFq1ahXRf8GCBQCkpKTQtWvXiLZv89ZbbzFp0iR27txJixYtGDduHAMGDIjuJknSIcGAQ5IkaR/Kzc1l1apVAFx11VU0bNgQgEWLFgW3q9QOIcLhMIsWLQLg2GOPjTgo9NvMnj2bBx98kHA4zJFHHsnEiRNJS0uL7iZJ0iHDgEOSJGkfKi0tZcKECQBce+21XHrppZSXlzN9+nQA+vXrFxxECpCVlcWWLVsA6NmzZ1CvbcyYMRQXF9OsWTMeeeQRtm/fzqOPPko4HKZJkyb8/Oc/Z9OmTWzatCkY07x5c9q1a1frVSRJqt8MOCRJkvahjh070r9/f5YsWcKUKVOYN28eOTk5lJSUkJKSwujRoyP6Z2VlBc/RW1dqZGdnU1RUFJzdsXDhQrZt2wbA9u3buf3222t3B2DIkCGMGzcuuixJUr3lIaOSJEn72Pjx4zn99NMJhUKsXbuWsrIyevfuzaRJkzjiiCMi+n6fgCPaF198EV2SJOmQ5woOSZKkfSw5OZk77riDsWPHsmnTJtq1a0dSUlJ0NwBGjBjBiBEjossRXnnllYivr732Wm9KkSQpigGHJEnSftKkSRO6dOkSXZYkSfuBW1QkSZIkSVLMM+CQJEmSJEkxz4BDkiRJkiTFPAMOSZIkSZIU8ww4JEmSJElSzDPgkCRJkiRJMc+AQ5IkSZIkxTwDDkmSJEmSFPMMOCRJkiRJUswz4JAkSZIkSTHPgEOSJEmSJMU8Aw5JkiRJkhTzDDgkSZIkSVLMS4guSJIkKdKr722ILtVDzaILkiTFFFdwSJIkSZKkmGfAIUmSJEmSYp4BhyRJkiRJinkGHJIkSZIkKeYZcEiSJEmSpJhnwCFJkiRJkmKeAYckSZIkSYp5BhySJEmSJCnmGXBIkiRJkqSYZ8AhSZIkSZJingGHJEmSJEmKeQYckiRJkiQp5hlwSJIkSZKkmGfAIUmSJEmSYp4BhyRJkiRJinkGHJIkSZIkKeYZcEiSJEmSpJhnwCFJkiRJkmKeAYckSZIkSYp5dS7gqKysJDMzk/z8/OgmSZIkSZKkr5UQXThYduzYwZNPPsmHH37Izp07AWjZsiUDBw7k4osvJhQKAfCnP/2J//znP7WH7qZt27Y8+OCD0WVJkiRJklRP1YmAo6KigjvuuINNmzZF1PPz83n11VfZvn07o0aNCkIOSZIkSZKk2upEwPHyyy8H4caxxx7L5ZdfTnl5OU8++SSZmZnMmTOH/v3706dPH3r37k1KSkrUK0BJSQkff/wxAK1bt45qlSRJkiRJ9VmdCDgWL14MQFJSEjfccAONGzcG4MYbb+Q3v/kN4XCYd999lz59+nDOOefUHhqYNm0aUL2t5brrrotqlSRJkiRJ9dlBP2S0srKSzZs3A5Cenh6EGwCtWrUiNTUVgIyMjKAebd26dcyfP5+GDRty8803f+0KD0mSJEmSVH8d9IAjISGB+Ph4ALZu3Uo4HA7aqqqqKCkpAaC8vJwdO3YEbTV27drFE088QTgc5owzzqBjx47RXSRJkiRJUj130LeohEIhOnfuzJo1aygsLGT27NkMGTIEgFdeeYXy8vKgb2FhYcQKD4A5c+bw+eefk5CQwNChQyPafog1a9ZEl/aTBtEFxZgDN1cOBOdjfeG8VF3ifFRd45xUXeOcVF1zIOZk9+7do0v7zEEPOAAuuugi7rnnHgBmzJjB7NmzqaioIC8vj/j4+ODa2JqVHjWKiop44YUXADjllFOC7SySJEmSJOnQUicCjl69ejF27FimTp1KSUkJGzduBGDQoEFs376djz76iFAotFuAMW/evGDbyoknnhjR9kPtzzSptlV5G6JLijEHaq4cCM7H+sN5qbrE+ai6xjmpusY5qbom1udknQg4AAYMGEDfvn1Zv349RUVFdOrUiTZt2nDzzTcDkJaWRoMGkcuePvzwQwAaNmzIkUceGdEmSZIkSZIOHXUi4HjzzTfJyckhISGBESNGBEHGF198QU5ODgAnn3xy7SHk5OSQnZ0NwJFHHrlb+CFJkiRJkg4ddSLgKC0tZd68eQAkJiZy4YUXUlhYyOOPPw5AXFwcgwcPrj2Ezz77LHj25hRJkiRJkg5tdSLgGDJkCP/6178oKCjg9ddfZ/bs2ZSVlQHVt6xcd911tGzZMmLMV199FTynpaXVapEkSZIkSYeauOjCwZCSksK4ceM4+uijASgrKwuuj/31r3+92/YUIDiIFNjt8FFJkiRJknRoqRMrOADatm3LuHHjKC4uJjc3l/T0dBo3bhzdLXDLLbdElyRJkiRJ0iGqzgQcNZKTk0lOTo4uS5IkSZIkfaM6sUVFkiRJkiRpbxhwSJIpL7KyAAAd0UlEQVQkSZKkmGfAIUmSJEmSYp4BhyRJkiRJinkGHJIkSZIkKeYZcEiSJEmSpJhnwCFJkiRJkmKeAYckSZIkSYp5BhySJEmSJCnmGXBIkiRJkqSYZ8AhSZIkSZJingGHJEmSJEmKeQYckiRJkiQp5hlwSJIkSZKkmGfAIUmSJEmSYp4BhyRJkiRJinkGHJIkSZIkKeYZcEiSJEmSpJhnwCFJkiRJkmKeAYckSZIkSYp5BhySJEmSJCnmGXBIkiRJkqSYZ8AhSZIkSZJingGHJEmSJEmKeQYckiRJkiQp5hlwSJIkSZKkmGfAIUmSJEmSYp4BhyRJkiRJinkGHJIkSZIkKeYZcEiSJEmSpJhnwCFJkiRJkmKeAYckSZIkSYp5BhySJEmSJCnmGXBIkiRJkqSYZ8AhSZIkSZJingGHJEmSJEmKeQYckiRJkiQp5hlwSJIkSZKkmGfAIUmSJEmSYp4BhyRJkiRJinkGHJIkSZIkKeYZcEiSJEmSpJhnwCFJkiRJkmKeAYckSZIkSYp5BhySJEmSJCnmGXBIkiRJkqSYZ8AhSZIkSZJingGHJEmSJEmKeQYckiRJkiQp5hlwSJIkSZKkmGfAIUmSJEmSYp4BhyRJkiRJinkGHJIkSZIkKebt84CjoKCAzMxMKisro5u+1pdffskXX3xBeXl5dJMkSZIkSdL3khBd+KEyMjJ48skn2bJlCwANGjSgS5cujBo1isMPPzyib2VlJU8//TRLliyhqKgIgIYNG3LWWWdx4YUXkpDw7f9Zc+bM4YknnoguBy644AIuuOCC6LIkSZIkSaqn9skKjvnz5/PnP/85CDegOsRYvXo1EydOJDs7O6hXVVXx8MMPM3fuXIqKikhMTCQUClFRUcFrr73GjBkzgr7fJCsrK7okSZIkSZIOYd++VOJ72LZtG8899xwAiYmJXH311fTo0YMlS5bw7LPPUlxczNSpU7nrrrsAeP3111m2bBkAw4YNY/jw4Wzbto0HH3yQ7Oxs5s2bx3nnnUerVq2C7xGtJuDo1q0bZ511VlQru60YkSRJkiRJ9dteBxwrVqxgx44dAAwdOpSBAwcCcNZZZ5GVlcWCBQtYt24dOTk5tGnThnnz5gHQuXNnLrnkEkKhEK1atWLUqFEsWrQIgKKiom8NOL788ksAevXqxUknnRTVKkmSJEmSDjV7HXDU3n7StWvXWi3QvXt3FixYAFSf0dG5c2cKCgoAOOmkk6iqquKLL74gLy+Pjh078stf/pJQKFTrFXaXn58fBCodOnRgzZo1rFu3jsTERLp27UrHjh2jRkiSJEmSpPpurwOOxMTE4Ln2GRwAhYWFwfOWLVto1KhR8HXDhg255ZZbyM3NDWpHHnkkN9xwA2lpaUEtWu1AZdasWaxZs6ZWK5x++un84he/+M6DSiVJkiRJUv2x1ynAEUccETy//fbbnHDCCTRt2pT8/HzmzJkTtBUVFZGUlBR8/cwzzwDVW1Xy8vIoKSkJDiV98MEHiY+PD/rWVvuA0c8//5yjjz6auLg4VqxYQVVVFXPnzqVly5acd955tUZ9f9GByf7TILqgGHPg5sqB4HysL5yXqkucj6prnJOqa5yTqmsOxJzs3r17dGmf2euA4+ijj+bII49k9erVfPXVV9x4442kp6ezceNGdu7cGfSLj4+P+LpBgwb84Q9/4PDDD6e8vJz77ruP1atXs3nzZhYuXMigQYOCvrWFQiF69epFKBTisssuo3PnzgCsXbuWu+66i507d/Laa69x7rnnEhe3Ty6JkSRJkiRJddxeBxwAv/3tb5k6dSofffQRZWVlbNiwgZSUFC6//HIef/xxANLS0khOTg7G/OhHPwpuO0lMTGTYsGGsXr0agMzMzG8MOIYNG8awYcOiy3Tr1o0+ffqwbNkySktLycvLo02bNtHdvtP+TJNqW5W3IbqkGHOg5sqB4HysP5yXqkucj6prnJOqa5yTqmtifU7uk4CjadOmjB07lry8PNavX0+zZs3o1KlTcB0sQHp6Og0a/HfZUosWLYJnqA5AapSXl9dq+a+dO3eyefNmoPoMj5YtW0a0N23aNHguLS2t1SJJkiRJkuqzvQ44cnJyePPNNwE49thjOeGEE4K2999/H6heodG/f3+gemtKZWUln332WdAPYN26dcFzzcqOHTt2BNtakpKSiIuL47bbbqOiooKkpCQeffRRGjduDEBVVRWrVq0Cqr9H+/btq19MkiRJkiTVe3sdcKSmprJo0SIqKipYunQprVu3pm3btsydO5eMjAwABg4cGAQR/fv354MPPmD58uW8+OKLDBo0iI0bN/K///u/QPVZHf369QPgnnvuYcOG6qVOY8aM4aSTTqJ79+4sX76csrIyHnvsMX7605/SpEkTZs6cSX5+PgADBgzwFhVJkiRJkg4he50CJCYm8rOf/Yx//OMfFBYWcuutt5KUlERZWRkAXbp04fLLLw/6jxw5kg0bNrBp0yZefvllXn755aANqs/YaNeuXUSttlGjRnHnnXeyY8cOMjIyghClRlpaGqNGjYqoSZIkSZKk+m2fXDMybNgwRo4cSZMmTQAoKysjOTmZgQMHMm7cuGD1BlSfvXHnnXdy3HHHRdRTUlK49tprueiii4La10lPT2fChAkMGDCAUCgU1OPj4znllFP44x//GPx3SJIkSZKkQ8Ner+CoMXToUM4880xyc3Opqqqiffv2EQFEbS1atODmm28mHA7z5Zdf0qhRo90ODIXqLSpfp3379owdO5by8vLg0NG2bdu6LUWSJEmSpEPUPk0E4uPjSU9Pjy5/o1AoFBwo+kMkJibSoUOH6LIkSZIkSTrE7JMtKpIkSZIkSQeTAYckSZIkSYp5BhySJEmSJCnmGXBIkiRJkqSYZ8AhSZIkSZJingGHJEmSJEmKeQYckiRJkiQp5hlwSJIkSZKkmGfAIUmSJEmSYp4BhyRJkiRJinkGHJIkSZIkKeYZcEiSJEmSpJhnwCFJkiRJkmKeAYckSZIkSYp5BhySJEmSJCnmGXBIkiRJkqSYZ8AhSZIkSZJingGHJEmSJEmKeQYckiRJkiQp5hlwSJIkSZKkmGfAIUmSJEmSYp4BhyRJkiRJinkGHJIkSZIkKeYZcEiSJEmSpJhnwCFJkiRJkmKeAYckSZIkSYp5BhySJEmSJCnmGXBIkiRJkqSYZ8AhSZIkSZJingGHJEmSJEmKeQYckiRJkiQp5hlwSJIkSZKkmGfAIUmSJEmSYp4BhyRJkiRJinkGHJIkSZIkKeYZcEiSJEmSpJhnwCFJkiRJkmKeAYckSZIkSYp5BhySJEmSJCnmGXBIkiRJkqSYZ8AhSZIkSZJingGHJEmSJEmKeQYckiRJkiQp5hlwSJIkSZKkmGfAIUmSJEmSYp4BhyRJkiRJinkGHJIkSZIkKeYZcEiSJEmSpJhnwCFJkiRJkmKeAYckSZIkSYp5BhySJEmSJCnmGXBIkiRJkqSYZ8AhSZIkSZJingGHJEmSJEmKeXUu4KisrCQzM5P8/Pzopq9VWlrKmjVrKCgoiG6SJEmSJEmHiITowsGyY8cOnnzyST788EN27twJQMuWLRk4cCAXX3wxoVAoov/y5ct54YUXWL9+Pbt27QKgc+fOjBo1iq5du0b0lSRJkiRJ9VudWMFRUVHBHXfcwXvvvReEGwD5+fm8+uqrPPnkk4TD4aC+fPlyHnjgAdatW8euXbtISkoCYMOGDfzxj3/kq6++CvpKkiRJkqT6r04EHC+//DKbNm0C4Nhjj+WBBx5g4sSJdOnSBYA5c+bw6aefAlBeXs7DDz9MZWUlqamp3HfffUydOpUrrrgCqN6y8tprr1W/sCRJkiRJOiTUiS0qixcvBiApKYkbbriBxo0bA3DjjTfym9/8hnA4zLvvvkufPn1477332LFjBwCjRo3i8MMPB+Css85i69atbN++neTk5OoXliRJkiRJh4SDHnBUVlayefNmANLT04NwA6BVq1akpqZSUFBARkYGAIsWLQKgcePGHHPMMeTn57NhwwYaNWrE+eefT6NGjYLxkiRJkiTp0BD67LPPwgDdu3ePbjsgwuEwV155JZWVlTRv3pzJkycHB4pWVVXxq1/9ivLycgCmTZvG7373OwoLC+natStHH300L7/8cvBaDRs2ZOTIkZxxxhlBbU+tWbMmuiRJkiRJkvaB/ZE91Pwdf9DP4AiFQnTu3BmAwsJCZs+eHbS98sorQbgBUFBQQFFREVB9oOjLL79MixYt6NChA6FQiIqKCp544gnefffdYIwkSZIkSar/DvoWFYCLLrqIe+65B4AZM2Ywe/ZsKioqyMvLIz4+PrhZJRQKBbep7Ny5k1NPPZVrrrmGUCjEsmXLeOCBBwB44YUX+PGPf1z94ntof6RJkiRJkiRp/zroKzgAevXqxdixY2natCkAGzduJC8vj0GDBtGvXz+gOtxo06ZNcCUswCWXXBJsZzn22GODW1e2bNlCYWFh0E+SJEmSJNVvdWIFB8CAAQPo27cv69evp6ioiE6dOtGmTRtuvvlmANLS0mjQoAGpqal89dVXhEIhUlJSIl4jNTWVzMxMACoqKiLaJEmSJElS/VUnAo4333yTnJwcEhISGDFiBA0aNADgiy++ICcnB4CTTz4ZgOOOO46vvvqKcDjM2rVr6dGjB1C9ZeXzzz8HIDExkVatWiFJkiRJkg4NdWKLSmlpKfPmzeOdd95h5syZVFZWkpeXx+OPPw5AXFwcgwcPBuDUU08Nxk2ZMoXVq1ezefNmpk+fTl5eHlC9GqRm64okSZIkSar/Dvo1sQDbtm3j9ttvp6CgAICkpCTKysqA6rM3rr/++mAFB8Abb7zB888/H3xdW3JyMvfffz/NmjWLbpIkSZIkSfVMzTWx8WPGjJkA1WdcHCyJiYkcc8wx5OTkkJubS1VVVXB97MiRIxk4cGBE/+7du9OsWTPy8/MpLi4Gqld59O3bl1tvvZXmzZtH9JckSZIkSfVTzWKJOrGCo7bi4mJyc3NJT0+ncePG0c27KSkpIS8vj7Zt25KYmBjdLEmSJEmS6rGaFRx14pDR2pKTk0lOTo4uf6OmTZsG18tKkiRJkqRDU504ZFSSJEmSJGlvGHBIkiRJkqSYZ8AhSZIkSZJingGHJEmSJEmKeQYckiRJkiQp5hlwSJIkSZKkmGfAIUmSJEmSYp4BhyRJkiRJinkJ0QVpfygqKmLz5s20bNmS1NTU6GZpn6iqqmLjxo1UVVWRnp5O48aNo7sEdu7cycaNG9m5cyft27enQYMG0V2kA8r3SR0IpaWlZGdnk5aWRlpaWnRzwPdI7W/hcJj8/HwKCgpo3br193rfc17qYNmTubcnfbXvGXBor0ydOpX58+fTtm1bHnzwwehmvvzySx599FGysrKCWuvWrRk9ejTdu3ev1VP64SoqKnjxxReZNWsWO3fuBCAUCvGjH/2Iyy67LOKXpl27dvHyyy/z6quvUlVVBUBcXBxnnHEGI0aM8IeQ9rni4mLGjRvHli1baNy4MdOmTYto931SB8Ly5ct54YUXWL9+Pbt27QKgc+fOjBo1iq5duwb9fI/UgfDBBx8wc+ZMcnJyglpycjIAl1xyCYMHDw7q4LzU/vNdf8vsydzbk77af+LHjBkzAfjWFF/6OllZWTz77LNUVVWRnJzMkCFDItqzs7O588472bJlS0R9+/btLFy4kO7du9O6deuINumH+POf/8zChQsJh8MR9ezsbJYtW8bAgQNp2LAhAI8//jizZs0KfsGH6k+RMjMzWbNmDT/+8Y+DurS3wuEwjzzyCBs2bACgQYMGDBs2LGj3fVIHwvLly3nggQfIz88nHA6TlJREVVUVhYWFfPjhhwwYMCD449L3SO1v7777Ln/7298oKSkhFArRvHlzysvLKS8vp6KigqVLlxIXF0fPnj2DMc5L7Q/f9bcM7Nnc25O+2vcKCgoAV3BoD+Xl5fHll1+ycuVK5s+fT1lZWXSXwEsvvURFRQUAl112GSeeeCL/+c9/mDFjBjt37uSFF16gd+/eUaOkPbNkyRI+/vhjALp06cLw4cNJSUnh//7v//jkk//f3r3FRlH+YRx/tt0e3Fh6sKvtYitBbRtDBayH4IEahRbRAhqVBA+RhIgHTIxRIdGQf/DGwI0mXMiFYhRRG5Wgay9KopLQitRCqlKhh2hcsC3dFu1uqNt2Wy82O+wu6L9TO23e5PtJNtmd99f25td3Zp6deadNPT09+vrrr1VXV6dAIKBDhw5JkkpKSrRx40a53W7t3r1bJ0+eVHt7u9ra2rRw4cLEPwFMmd/vt/rzYpgn4bRIJKI33nhDo6OjKigo0ObNm+Xz+XTgwAG99957Gh4e1ueff66nnnqKORIz4pNPPpEkFRQU6JVXXlFxcbFCoZC2b98uSeru7ta+fftUW1srj8dDX2Ja2TmXsdN7dmrhLBYZhS1fffWVduzYoS+//FLnzp1LHbb09/fryJEjkqTrr79edXV18nq9uvvuu3XHHXdIkrq6unTixInEHwNs++GHH6z3TzzxhG644QZdc801evzxx+VyuSTFDpYkqaGhwbrKY8OGDZo/f75KS0v17LPPWrV+vz/2y4D/qKOjQ/X19UpLS9OcOXNSh5knMSOampqs/fX69etVUlKi9PR0rVixQnV1dbrrrruUn58viTkSzguHwwoGg5Kk6upqFRcXS4rdnrJ8+XItX75cUmxNrb6+Pkn0JabXZM9lJHu9Z6cWziLggC3Z2dnKycmxXv/k9OnT1j/5okWLksYSP586dSphBLCvpKRE99xzj+677z7Nnz/f2p6Wlmb1YGlpqaTz/ebxeHTttddatYWFhbryyiuTaoD/IhwOa+fOnYpGo3rooYfk8/lSS5gnMSPi3yh6PB4tWrRIwWBQLS0t+umnn7RmzRpt2LBBa9eulcQcCeddeuml1m13x48fTxprb29Xe3u7pNjxJvtuOGGy5zKSvd6zUwtnuVM3AP9m9erVWr16tfV53bp1CaPnxdN5SfJ6vQkjscXz4hLrgKmIf9sT19LSojNnzqixsVFSbMdy2223STrfbxdb0+Dyyy9XIBDQ0NCQRkdHWQgK/8muXbsUDAZVWVmpVatWqa2tLbWEeRIzore3V5Lk8/n02Wefad++fdZYZmamHn30US1btkwScyRmxgMPPKC3335bHR0d2rFjhxYsWKDu7m599913kmJfUDz44INKT0+XRF9iek32XEay13t2aulTZxFwwBHxRV4kKSsrK2EklpzGJdYB02HXrl3WJYdZWVl6+eWXdcUVV2h0dFRDQ0OSYgf1qeJ9OTExoYGBARUVFaVUAJPT0NCg1tZW5eXlJV2amop5Ek4bGxvTn3/+KUn65Zdf1NXVpfz8fOXk5CgQCGhkZETvvPOOMjMztWTJEuZIzIilS5cqHA5rz549OnbsmI4dO5Y0XlNTo5UrV0oS+27MGju919fXN+la+tR53KICR6SlnW+txJWEpdg/d1xiHTAdqqqqVF5eroyMDEUiEW3dulWHDh1K6rXEHoxL7FP6ElPV3d2tDz/8UC6XS5s2bbro2htxzJNw2vj4uNVL0WhU1dXV2rlzp15//XW9+OKLVl18rZg45kg4ZXR0VG+++ab27NkjKbbQ6J133qnrrrvOqmlsbNRrr72moaEh+hKzxk7vxa82kv5/LX3qPK7ggCMSHzucujrx8PCw9Z7HE2O6Pf3005Jij/569dVX9ddff6m+vl6333678vLydPbs2Qt6Ujrfpy6XSwUFBSmjwOT4/X5Fo1EVFhbqyJEj1iKi8dsERkZG9O677+qyyy5jnoTjMjMzlZ2dbfXX2rVrrSuKFi9erKuvvlrd3d0aHBxUKBRijoTjjh8/bt2KctNNN+n555+3enL//v2SpI8//lg///yzDh8+rJqaGvoSsyI9PX3Svef1eiddS586jwgJjkg8II8f2F/sc2FhYcIIYM+5c+e0ZcsWbdmyRfX19UljpaWlmjdvnqTYPZSBQMDqy76+vgsS9nhf5ubmyu0m+8XUxL+lCQaDamxstF5//PGHpNgtA42NjTp8+DDzJGZE/GDa5XJdcEVR4oH2yMgIcyQc19raar2vra1NuoVv2bJl1nowknT06FFJ548p6UvMNDu9Z6cWziLggCPmzp1r7bS+//77pLGWlhbrfXxVYWAqPB6PBgcH9dtvv6m5uVnRaNQaGx4eViAQsD7n5eWppKREUuxAPvHxsoFAwNr5xGuAqZg7d64qKioueF1yySWSYpemVlRUaN68ecyTmBFVVVWSYpdNd3Z2Wtuj0ah+/fVXSbE1YLxeL3MkHJd4ef7IyEjCiDQ0NGStYyDJOhGkLzFb7PSenVo4iwgJjigsLNSSJUvU3Nysrq4u7d27V9XV1Tp69Kh1yXZZWZnKyspSfhKwp7KyUt9++63OnDmjt956S2vWrFE4HFZDQ4MikYik2A4lJydHK1eu1DfffKOJiQm9//77mpiYUGZmpj766CMrba+rq0v89YAtDz/8cOomSdK2bdt04sQJZWdna+vWrdZ25kk4rbq6Wl988YWk2CLMTz75pPLz87V//3719/dLit0q4HK5mCPhuIqKCh04cECS9MEHH6ioqEhFRUUKhULavXv3BbWS6EvMGju9Z6cWziLggGPuv/9+tba2KhKJyO/3y+/3W2Pp6en/eCIA2PHYY4/pxx9/VDgcVlNTk5qampLGs7Ky9Mwzz0iKfbu+dOlSHTx4UL///ru2b9+eVFtZWakFCxYkbQOcxDwJp/l8Pq1bt0579+5Vb2+vtm3bljSek5OjRx55RBJzJJx3yy23qLm5Wa2trTp9+rReeOEF5ebmKhQKJS3EWF5ertraWkn0JWaPnd6zUwtnpT/33HP/k1jEDFPz6aefSoodINXU1CSNzZkzRzfffLM6Ozut+88lqbi4WC+99JLKy8sTqoGpyc7O1q233qqBgQH19PRYKbnL5dLixYu1adMmXXXVVVZ9VVWV3G63Ojs7rVta3G63VqxYoY0bN7K6NRxx8OBBBYNBZWRkaNWqVdZ25knMhLKyMuXm5ioYDCoUCkmK3SqwcOFCbd68WXl5eVYtcySc5HK5dOONNyojI0OnTp1SJBJRJBLRxMSEPB6PMjIydO+992r9+vVJj8umL+GUfzuXkez1np1aTL+BgQFJkuvkyZMTUmznBzglHA6rr69PXq/3gkXOgOkyNjam3t5ejY2Nqbi4WFlZWakllvHxcfX09Gh8fFw+ny/pEV/AbGCexEwIh8Pq7++Xz+djjsSsGh8f1+DgoM6ePavc3FxrQeV/OwmkLzFb7PSenVpMn46ODkkEHAAAAAAAwGDxgOOfI1IAAAAAAABDEHAAAAAAAADjEXAAAAAAAADjEXAAAAAAAADjEXAAAAAAAADjEXAAAAAAAADjEXAAAAAAAADjEXAAAAAAAADjEXAAAAAAAADjEXAAAAAAAADjEXAAAAAAAADjEXAAAAAAAADjEXAAAAAAAADjEXAAAAAAAADjEXAAAAAAAADjEXAAAAAAAADjEXAAAAAAAADjEXAAAAAAAADjEXAAAAAAAADjEXAAAAAAAADjEXAAAAAAAADjEXAAAAAAAADjEXAAAAAAAADjEXAAAAAAAADjEXAAAAAAAADjEXAAAAAAAADjEXAAAAAAAADjEXAAAAAAAADjEXAAAAAAAADjEXAAAAAAAADjEXAAAAAAAADjEXAAAAAAAADjEXAAAAAAAADjEXAAAAAAAADjEXAAAAAAAADjEXAAAAAAAADjEXAAAAAAAADjEXAAAAAAAADjEXAAAAAAAADjEXAAAAAAAADjEXAAAAAAAADjEXAAAAAAAADjEXAAAAAAAADjEXAAAAAAAADjEXAAAAAAAADjEXAAAAAAAADjEXAAAAAAAADjEXAAAAAAAADjEXAAAAAAAADjEXAAAAAAAADjEXAAAAAAAADjEXAAAAAAAADjEXAAAAAAAADjEXAAAAAAAADjEXAAAAAAAADjEXAAAAAAAADjEXAAAAAAAADjEXAAAAAAAADjEXAAAAAAAADjEXAAAAAAAADjEXAAAAAAAADjEXAAAAAAAADjEXAAAAAAAADjEXAAAAAAAADjEXAAAAAAAADjEXAAAAAAAADjueNvOjo6ErcDAAAAAAAY428Wn7iUe1fzggAAAABJRU5ErkJggg==;" vertex="1" parent="1">
          <mxGeometry x="50" y="1000" width="1080" height="614" as="geometry" />
        </mxCell>
        <mxCell id="cd91eSlOGsGhSM2sVP5u-2" value="" style="shape=image;verticalLabelPosition=bottom;labelBackgroundColor=default;verticalAlign=top;aspect=fixed;imageAspect=0;image=data:image/png,iVBORw0KGgoAAAANSUhEUgAABDoAAAJmCAYAAAC9seAPAAAACXBIWXMAAAsTAAALEwEAmpwYAAAgAElEQVR4Xuzde1zUZd7/8dcMKMhZRlGE1MJA0dg7RbrLNo08pEubaPe62eaq225la67mXdu2sd7lXeu2cdealodWO5mla6WZZFomokEhmiKCoKkZchjOp9GB+f3Bj2/MpCZqLYzv5+PR4/Hlc13X9+t85/sI5jPX9blMubm5DkREREREREREOrioqCiT2TUoIiIiIiIiItJRebYcREZGto6LiIiIiIiIiHQIeXl5xrFmdIiIiIiIiIiI21CiQ0RERERERETchhIdIiIiIiIiIuI2lOgQEREREREREbehRIeIiIiIiIiIuA0lOkRERERERETEbSjRISIiIiIiIiJuQ4kOEREREREREXEbSnSIiIiIiIiIiNtQokNERERERERE3IYSHSIiIiIiIiLiNpToEBERERERERG3oUSHiIiIiIiIiLgNT9fAxbJarVRUVNC7d286derk2uykoaGBwsJCAMLDw7+3v4iIiIiIiIjIuVyyREdmZiYrVqygrKwMgE6dOhEREcG0adO44oornPpWVlayevVqduzYQWNjIwBms5mYmBimT59Ot27dnPqfyf33309lZaVr2LBq1SrXkIiIiIiIiIi4uUuydOWTTz7h2WefNZIcAKdPn+bgwYPMnz+f48ePG/H6+nr++te/8umnn9LY2Ii3tzc+Pj40NTWxZ88e/vznP1NdXW30P5OqqqpzJjlERERERERE5PJ00TM6qqqqeOONNwDw8vLinnvuISoqii+++ILXX3+d6upqli1bxhNPPAHA559/ztGjRwG4/fbbueOOO/Dw8CA1NZUXX3yRqqoq3n//fe68807jGq6OHTtmHP/qV7+ia9eurVpFRERERERE5HJ10YmO7Oxs6urqABg3bhzDhg0D4NZbb+XYsWNs27aN/Px8CgsLCQ0N5ciRI0DzUpWJEyfi4eEBwE9/+lPWrFlDaWkpJ06caD75WbQkOsxmM6NGjVJtDxEREREREREBLsHSldbLUvr169eqBSIjI43jzMxMAK666ioAmpqaOHjwoNFeVFSE1WoF4OqrrzbiZ9KS6AgNDcVms5Gamsr69evZvXu3kXQRERERERERkcvPRc/o8PLyMo5b1+gAqKioMI5b2gYPHszVV1/NoUOHePHFFxk2bBje3t7s3LkTh8NB7969+elPf2qMO5OW5Mrp06d5+OGHna4THBzMgw8+6JRkaYu8vDzXkIiIiIiIiIhcIhf6ef18XfSMjpYZGgCbNm2ipqYGgNLSUrZs2WK0tRQP9fX15b//+7/p3r075eXlvP/++6xdu5ZvvvkGHx8fZs+eTXBwsDHOVVNTE19//TUAxcXFeHt7ExcXR48ePYDmhEpycjL19fWth4mIiIiIiIjIZeCiZ3Rcc8019O/fn4MHD/LNN9/w4IMPEhoayokTJ4ytYwGjFsfevXt56aWXqKysxMPDgwEDBtCtWzd2795NVVUVjz76KFOmTGHEiBHG2NaqqqqM7E/fvn2ZPHkyJpOJxsZGnnvuOTIzM6mqqmLr1q0kJCS4jP5+P3RmSURERERERER+OBed6ACYM2cOy5Yt4/PPP6ehoYEjR44QEBDA5MmTeemllwCwWCwArF271pjdMX/+fPr06QM0JzD+9Kc/UVZWxurVqxk+fDgmk6n5Aq0EBQXx2GOPuYbx8PAgMTHRqAXSsrOLiIiIiIiIiFw+Lkmiw8/Pj9mzZ1NSUsLhw4cJDAykb9++ZGVlGX1CQ0OpqKjg8OHDAAwYMMBIcgAEBAQQFxdHSkoKVVVVFBQUfKe4KTTX/WgpONqtWzc6d+5stPn5+RnHWroiIiIiIiIicvm56ERHYWEhGzduBODaa6/luuuuM9p27twJNBcsjY2NxW6343A4ADh16pTRr0VVVZVx7OHhgd1uNxIWZrMZX19fPvnkE9asWQNAYmIi//Vf/2WM2b9/v3F85ZVXGsciIiIiIiIicnm46ERHcHAwO3bs4NSpU+zevZuQkBB69erF1q1bjWUkw4YNw8fHB2ie2VFYWEhBQQEbNmzgZz/7GWazmfT0dD777DMAfHx86NOnD3v37uWZZ54BoFevXvz9738nOjq6+cLAhx9+SGBgIP/xH//BoUOHWLVqFQCenp7ExcUZ/URERERERETk8nDRiQ4vLy8mTJjA6tWrqaio4JFHHsHb25uGhgYAIiIimDx5stH/d7/7HU899RSnT5/mzTffZN26dXh6elJbWwuAyWTi/vvvx2w+84YwUVFRjBw5ki1btlBXV8fKlStdu/CLX/yCK664wjUsIiIiIiIiIm7uohMdAD//+c/x9PTknXfeoba2loaGBvz9/YmJiWHatGnGbA5oTlT8+c9/Zt26dezduxebzYbNZgOgf//+TJw4kYEDBxr9z+TXv/41vXr1Yv369VRUVBjxbt268etf/5ohQ4a06i0iIiIiIiIilwtTbm6uAy7NtqqNjY0UFxdjt9sJDw8/464prdXX11NcXExTUxM9evRwSoicD4fDQXl5OWVlZXTr1o2goCDXLiIiIiIiIiLi5vLy8gCIiooyXZIZHS08PDwIDQ11DZ9Vly5dnHZeaSuTyURwcDDBwcGuTSIiIiIiIiJyGTpzIQwRERERERERkQ5IiQ4RERERERERcRtKdIiIiIiIiIiI21CiQ0RERERERETchhIdIiIiIiIiIuI2lOgQEREREREREbehRIeIiIiIiIiIuA0lOkRERERERETEbXi6BkQuVEVFBceOHQOgR48e9OjRw6VHx5Gbm4vNZgMgJibGpVVERERERETaKyU63Eze1xUUWutcw+d0dXggvSy+ruE2y8nJYeHChQBMnDiRiRMnuvQ4PzU1NaSmpgLQs2dPrr32Wpcezg4V2nlrR9tec79QT355o49r2LBs2TK++eYbAFatWuXSen7a+joupT179lBYWAjAjTfeiL+/v0sPERERERER96REh5upt9mpqGmeiXC+Tp1ucg39W1VVVfHaa68BMHTo0O9NENTbHBwtsbuGzynQx+QauuTa+joupdTUVHbt2gXAwIEDlegQEREREZHLhhIdImcwf/58mpraVwJIREREREREvp8SHXJeamtrycjIoLCwkIaGBgICAhg4cCD9+/fHZDq/2REFBQUUFBRQWFhIcHAwffr04ZprrnEan5WVZSy5ACgrK2PXrl3G9X4sBw8epL6+HoDrr78egKKiIg4fPgzAgAEDMJvN7N69m6NHj2KxWLjmmmvo06cPcP6vo6KiguzsbI4ePYqvry9XX301V199NZ06dTL6tOW6JSUl5OfnU1paaoz/8ssvOXHiBAMHDiQgIMCIi4iIiIiIuCMlOuR7ZWdn8/e//90oztli3bp1DBw4kLlz5+Ll5eXU1lptbS0rV64kLS3NtYnIyEjuvfdeQkNDAVixYoXTh/SCggIWLlxI//79f9REx+uvv27U6GhJdOzdu5eVK1cCMHXqVN5//32nf6uHhwf33HMPw4cPP6/XkZqayiuvvEJdnXN9kYiICObOnUtgYCDQtuseOHCAJUuWGG3wbY2Rxx577Ee9hyIiIiIiIv8O2l5WvteLL76IzWbDz8+P3/3ud8ycOZO4uDigOQmyfv16lxHOli5daiQ5rrjiCkaNGkV0dDQAeXl5/O1vf+P06dMAjBgxgp/+9KfG2B49ejB27Fj+8z//04i1B6+88grl5eUMGjQIb29vABobG1m9ejV2u/17X8fu3bt58cUXqauro0ePHowcOZJ+/foBzUmRJ5544oxLZ77vuuHh4YwdO9ZIHEFzMdKxY8disViMmIiIiIiIiLvSjA45p7KyMsrKygDo3r07w4cPx2QyMWTIEDw9PTl9+vQZP5C32L9/P59//jkAgwYN4pFHHsHDwwOAN998kw0bNlBUVMT7779PYmIiEyZM4JtvvjF2K+nduzd33323cb72IiQkhL/85S8EBQVRV1fHnDlzqKqqorKykpMnT57zddjtdmOGRnh4OE8++aQxI+Zf//oX//rXvygsLCQ9Pd2YTdLi+64bERFBREQEFRUVxtKZhIQEevfu7XQeERERERERd6UZHXJOAQEBxofwI0eOMHfuXN58803279/P9OnTmT17NpMmTXIZ9a2cnBzjeNy4cUaSA+C2224z6nO07tcRxMXFERQUBICPj48xGwOgsrLSOD6TEydOGEtPrrzySnJzc/nyyy/58ssvCQkJMfqdaanPxVxXRERERETkcqAZHXJOnp6ePPjggyxdupTKykoKCwvZsGEDGzZswMPDgyFDhjBlyhSCg4NdhwLw9ddfG8e9evVq1QJ+fn74+/tTVVXFiRMnnNrau65duzr93DpB0djY2Krlu1rfk9TUVGPWh6szJS4u5roiIiIiIiKXAyU65Htde+21/OMf/2D//v3s27ePffv2ceLECRobG8nIyKCoqIinn37adRgAXbp0MY5b6nC0durUKQCj3kRHYTY7T4Y6351nwPm1RkVF0b9//1at3/L393cNXdR1RURERERELgdKdMg5FRcXk5eXBzRvbXrttdcC8M033/C///u/lJeXc/ToUSoqKloPM4SHhxvHubm5hIWFGT8fP36choYGwLlfa+eq/9GRtH4drq/VdenP8ePHsdvt+Pn5OcUvlLvcQxERERERkfOhGh1yTvX19SxevJjFixfz7rvvGvEePXrg6+sLNM9QCAgIMNpau+666+jcuTPQvB3t8ePHAaiqquKf//yn0a/1DiWtZy0cPnyY/Px8rFarEesozvY6QkJCiIqKApp3nUlNTaWhoQGbzcbGjRt55JFHeOyxxzh48KAxvq1aX3vXrl2cPHnSSCqJiIiIiIi4M83okHPq3bs3kZGR5OXlsXXrVgoKCujVqxdHjhwxdvW48cYbv7OkokX37t35xS9+weuvv05ZWRmPPPII/v7+1NTU4HA4APjP//xPYmNjncZ07tyZU6dOUV5eTlJSEv379ycpKcno0xGc63VMnz6dpKQkbDYbL774IsuXLwe+Xd5z9dVXc8MNN7Q+XZu0rofSUlPlscceY+DAga16iYiIXJyamhqWL19OVlYW5eXlREdHExcXR2JiotPyyvLyclavXk1aWhqlpaWEhYURExPD9OnTz7hU09W7777LJ598Qn5+Pv7+/vzkJz9h6tSpTtupi4iItFCiw81cHR5Enx7f/wdDa128zv4YmEwm/vjHP/Lqq6+ya9cuvvrqK7766isAfH19iY+P/87SC1fjxo0jNDSUV199laKiIqqrq4HmYqQTJkxgzJgxTv09PDy49957WbVq1XnN5OgX6sljd5x5RsnZ+Hj98LUtzvU6rrjiCv7617/y8ssvc+DAASPB0alTJ4YNG8aUKVOcdqhpq1tvvZXDhw+zZ88eFSkVEZEfhNVqZcaMGRQXFxux9PR00tPTyc/PZ+7cuZjNZqxWKzNnzqSwsBCTyURgYCBHjhzh8OHDpKWlsWTJku8U227tiSee4JNPPjF+rqurY/PmzWzfvp2FCxc67UAmIiICYMrNzXUAREZGuraJOLHZbJSWllJbW4u/vz/du3fH0/PsSZIzqamp4eTJk1gslnP+UdOivr6eU6dO4ePjQ6dOnVybO4xzvY7Tp09z4sQJzGYzISEhl7Qwa2NjI7W1tXh4eBhLjURERC6Fxx57jJ07d+Lv709SUhKRkZFs376d5ORkHA4Hjz/+OPHx8SxbtoxVq1YREhLC888/T8+ePbFarcyaNYsTJ04wfvx4Zs2a5Xp6ADZv3mwUPP/1r3/NzTffzMGDB0lOTubUqVMMHDiQF154wWWUiIhcjlpqS0ZFRZna9ilVLmteXl5OxUQvhJ+fX5u+eenSpYvTzi0d1bleR6dOnejbt69r+JLw8PA4a/0UERGRC9XU1ERmZiYAY8eONZagJiQksG3bNjIzM9mwYQPx8fHGrMZ+/frRs2dPACwWCxEREZw4ceKcNaR27doFQN++fZk6dSoAffr0ISMjg48//pjc3FwaGxsvahakiIi4nzMXVhAREREROYvq6mpsNhvAdxLqQUFBAOTk5AAwdOhQADIyMjhw4AAAhw4d4rPPPnNqPxObzYbFYiEmJsYp3lL/w8/PT0kOERH5Ds3oEBEREZE2CQwMxNvbm4aGBrKysrjrrrsAsNvt7Nu3D2hOUtTV1XHLLbdQWVnJ4sWLeeCBB/Dz86OmpgaTycSDDz5IfHx861M7eeqpp1xDHDp0iNTUVABj23sREZHWNKNDRERERNps5MiRAGRmZrJgwQJSUlJ49NFHnYqT1tfXU1FRwb59+4zi2LW1tQA4HA527979nYLd57Jjxw5mz57NqVOn8Pf357777nPtIiIiohkdIiIiItJ206ZN4+DBg+Tn55OSkkJKSgqenp7ExcWRkZGByWQiKCiIhx56iL179xIQEMDDDz/M0KFDKSgo4PHHH2fHjh2Ul5d/b0HR06dPs2jRIt577z0AQkNDefrppwkJCXHpKSIiokSHiIiIiFyA4OBgFi1axAcffMD+/fvp2rUrw4cPJy0tjYyMDIKDg6mvr2f//v1A83bzw4YNA2DAgAFMnjyZhQsXkpOTQ3V1Nf7+/q1Pb6iqquLhhx8mNzcXgNGjRzNr1ix8fHxceoqIiDRTokNERERE2iwjI4P6+nqio6MZP368EX/uuecAiIuLo6SkxFiyEh4ebvQBjERFU1MTJSUlZ0x02Gw2Zs+ezeHDhzGZTMyZM4eEhATXbiIiIk6U6BARERGRNtu0aRPbtm3DYrHwyiuv4Ovry+bNmykoKACaZ3D06dOHLl26UF9fz3vvvcfNN9+Mj48PDQ0NrF+/Hmjegr1v375s3bqV1157DYCpU6cyYsQI3n77bQ4fPgzAqFGjuPLKK8nOzm7+B/x/kZGRdOrUySkmIiKXNyU6RERERKTNEhMTSU1NxWq1MmnSJMLCwsjLywMgISGBQYMGATBlyhSWLFnCoUOHuOuuu+jXrx9HjhwxipBOnz4ds9lMdXU1R48eBZq3rwXYuHEjLTZv3szmzZuNn1usWrWK0NBQ17CIiFzGlOgQERERkTaLiYkhKSmJRYsWUVxcTF5eHhaLhdGjR/Pb3/7W6PfLX/4SPz8/Vq1aRWFhIV988QXQXFD07rvvZuzYsUbf1hoaGpx2cBERETlfptzcXAc0T/sTEREREWmLpqYmioqKaGxs/E4djtYcDgdlZWVYrVYsFgsWi8W1i4iIyAVrmVUYFRVl0owOEREREblgZrP5vJaOmEwmJThERORHYXYNiIiIiIiIiIh0VEp0iIiIiIiIiIjbUKJDRERERERERNyGEh0iIiIiIiIi4jZUjFRERETkB7Jr1y7WrFlDfn4+FouFmJgYEhMT6du3r1O/nTt3snbtWvLz8/Hw8CAiIoIJEyZwww03OPU7l4qKCv7nf/4HgL/+9a94eXm59BAREbk8KNEhIiIi8gN4/fXXefnll42fq6ur+eqrr/jkk0945plniIqKAmDVqlUsW7YMAB8fHxobG8nMzCQzM5Pf/OY3/OpXvzLOcTYOh4PXXnuNPXv2ANDY2OjSQ0RE5PKhpSsiIiIil1hubi7//Oc/ARg9ejRr165l5cqVREdHU11dzVNPPQVAXV0dK1asAGDatGls2LCBjRs3ct999wGwYsUKysvLm096BmlpaSxdupR7772XdevWuTaLiIhclpToEBEREbnEdu/ejcPhwGQyMWvWLCwWC3369OH+++8H4NixY+zdu5eqqirsdjsA119/PWZz859mcXFxADQ1NXHq1Knmk57BRx99xJtvvsmhQ4dcm0RERC5bSnSIiIiIXGLFxcUAeHh40KVLFyMeFBRkHB84cICePXsSHh4OwNtvv01dXR319fWsWbMGgCuuuIIePXoYY1yNGjWKe++9l3vvvZchQ4a4NouIiFyWVKNDRERE5BJrSU7Y7Xays7MZNGgQgFFDAzCWpPztb3/jiSeeYMuWLXz66aeYzWZsNhuRkZE8+eSTRv8zGTZsmHHc0NBAZmZmq1YREZHLk2Z0iIiIiFxiI0aMwNOz+fukJ598kvXr1/PGG2+waNEio099fT0ABw8e5OTJkwCcPn3aWKpy8uRJ9u7da/QXERGR86NEh4iIiMgl1rNnT2bMmIGHhwfFxcX83//9H8uXLycyMhJfX18AgoOD2bNnD0888QQVFRXceuutvPHGG2zcuJEJEyZQVVXFU089xRdffOFydhERETkXLV0RERER+QEkJiYyYMAAtm3bRklJCVFRUYwZM4bExEQAunfvzmeffQZA586dmTFjBv7+/gA88MADfPzxx1RUVJCenk5sbKxxXhERETk3JTpERERELrHi4mJycnIAmD59Op07dwZgx44dxm4sQ4cO5fPPPwcgICDASHIAmM1mvLy8ACgqKjLiP7TfLi5zDbmdZTOCXUMiIuJmtHRFRERE5BKrr69n3rx5zJs3j3Xr1gFgs9l4+eWXARg8eDA9evRgwIABAJSWlrJ582Zj/Pbt240ER0ufmTNnMnXqVGbNmmX0ExERke/SjA4RERGRS6xPnz7ExsbyxRdfsGTJEj7++GMKCwupqakhICCAGTNmAHDrrbeyfv16CgsLefrpp3n33Xfx8PAgOzsbgLCwMMaNGwfA8ePHqaysJDhYMxJERETORTM6RERERH4ASUlJ3HLLLZhMJg4dOkRDQwODBg0iOTmZq666CoCgoCCeffZZ4uPjMZvN5OTksH//fkwmE6NGjeLZZ58lMDDQ5cwiIiJyLqbc3FwHQGRkpGubiIiIiFyk2tpaTp48SVhYGN7e3q7NBpvNxsmTJ3E4HPTq1cuo6/FjUo0OERHpqPLy8gCIiooyaemKiIiIyA/I19eXiIgI1/B3eHl50adPH9ewiIiItJGWroiIiIiIiIiI21CiQ0RERERERETchhIdIiIiIiIiIuI2lOgQEREREREREbehRIeIiIiIiIiIuA3tuiIicgFqampYvnw5WVlZlJeXEx0dTVxcHImJiZhMJqNfeXk5q1evJi0tjdLSUsLCwoiJiWH69On4+/u3OqPIxdEzKSIi0vHs2rWLNWvWkJ+fj8ViISYmhsTERPr27evUb+fOnaxdu5b8/Hw8PDyIiIhgwoQJ3HDDDU79pJkpNzfXARAZGenaJiIiZ2C1WpkxYwbFxcWuTYwdO5a5c+diNpuxWq3MnDmTwsJCTCYTgYGBVFZW4nA46N69O0uWLKFr166upxBpMz2Tcqn8dnGZa8jtLJsR7BoSEfm3eP3113n55Zddw/j7+/PMM88QFRUFwKpVq1i2bBkAPj4+ANTV1QHwm9/8hl/96lfNAy9zeXl5AERFRZm0dEVEpI2Sk5MpLi42fgm99957PPTQQ5hMJjZt2sS2bdsAWLduHYWFhYSEhLBq1Sreeecd1qxZQ1hYGCUlJbz66qvOJxa5QHomRUREOpbc3Fz++c9/AjB69GjWrl3LypUriY6Oprq6mqeeegpoTmisWLECgGnTprFhwwY2btzIfffdB8CKFSsoLy9vPqkYlOgQEWmDpqYmMjMzgeZvymNjYwkICCAhIYHBgwcDsGHDBqD5W3aAfv360bNnTwAsFgsREREANDQ0IHKx9EyKiIh0PLt378bhcGAymZg1axYWi4U+ffpw//33A3Ds2DH27t1LVVUVdrsdgOuvvx6zufkjfFxcHND8d8CpU6eaTyoGJTpERNqguroam80GQEBAgFNbUFAQADk5OQAMHToUgIyMDA4cOADAoUOH+Oyzz5zaRS6GnkkREZGOp2W5qYeHB126dDHiLb+7AQ4cOEDPnj0JDw8H4O2336auro76+nrWrFkDwBVXXEGPHj2MMdJMxUhFRNogMDAQb29vGhoayMrK4q677gLAbrezb98+AGw2G3V1ddxyyy1UVlayePFiHnjgAfz8/KipqcFkMvHggw8SHx/f+tQiF0TPpIiISMfTkpyw2+1kZ2czaNAgAPbs2WP0aVmS8re//Y0nnniCLVu28Omnn2I2m7HZbERGRvLkk08a/eVbmtEhItJGI0eOBCAzM5MFCxaQkpLCo48+6lQIsr6+noqKCvbt20djYyMAtbW1ADgcDnbv3m0sIxC5WHomRUREOpYRI0bg6dk87+DJJ59k/fr1vPHGGyxatMjoU19fD8DBgwc5efIkAKdPnzaWqpw8eZK9e/ca/eVb2nVFRKSNysrKeOSRR8jPzzdinp6eDB48mIyMDEwmEx999BEPPfQQe/fuJSAggIcffpihQ4dSUFDA448/jtVqZeDAgbzwwgutzixyYfRMyqWiXVdERH4877zzDosWLTK+gACIiYmhoKCA2tpapkyZwrXXXsvs2bMBuPXWW7n77rvp2rUry5cvZ926dQA888wzxMbGGue4XLXedUVLV0RE2ig4OJhFixbxwQcfsH//frp27crw4cNJS0sjIyOD4OBg6uvr2b9/PwDjxo1j2LBhAAwYMIDJkyezcOFCcnJyqK6uxt/fv/XpRdpMz+SP4720I64hNxToGhARkR9IYmIiAwYMYNu2bZSUlBAVFcWYMWNITEwEoHv37kYdrc6dOzNjxgzjd/QDDzzAxx9/TEVFBenp6Up0uFCiQ0SkjTIyMqivryc6Oprx48cb8eeeew5oroJdUlJiZOdbCki1aNn/vKmpiZKSEn2olIumZ1JERKRjKS4uNoqFT58+nc6dOwOwY8cOYzeWoUOH8vnnnwPNBcdb/342m814eXkBUFRUZMSlmWp0iIi00aZNm5g3bx5/+tOfjBoHmzdvpqCgAGj+trxPnz5GBe333nuPuro6oHn7zvXr1wPQpUsX+vbti8jF0jMpIiLSsdTX1zNv3jzmzZtnLEGx2Wy8/PLLAAwePJgePXowYMAAAEpLS9m8ebMxfvv27UaCo6WPfEszOkRE2igxMZHU1FSsViuTJk0iLLoLIpUAACAASURBVCzMWBOYkJBgVM2eMmUKS5Ys4dChQ9x1113069ePI0eOGAUfp0+fbuyFLnIx9EyKiIh0LH369CE2NpYvvviCJUuW8PHHH1NYWEhNTQ0BAQHMmDEDaK7LsX79egoLC3n66ad599138fDwIDs7G4CwsDDGjRvX+tQCeMycOXMegMVicWkSEZEz6dGjB3379uXAgQNUVFRgtVqxWCyMHz+e3//+95hMJgAGDRpEt27d+OqrrygtLeWbb76hvr6e0NBQZsyYwe233+5yZpELo2fyx5F7vMI15HbyirxdQ27n50ObZzaJiPy7XX/99RQXF/PVV19htVppamoiOjqav/zlL0RERADg7e3NDTfcQHl5OUePHqWkpITi4mLMZjMjR47kj3/8oz7L/38tX9y88MIL/6NdV0RELlBTUxNFRUU0NjZ+p+ZBaw6Hg7KyMuPDp34ZyQ9Fz+QP63IoRvr+XvcvRqpdV0SkvamtreXkyZOEhYXh7X32hLPNZuPkyZM4HA569epl1PWQZtp1RUTkEjCbzYSGhrqGv8NkMunDpPwo9EyKiIh0PL6+vsYMjnPx8vKiT58+rmE5Ay3EFRERERERERG3oUSHiIiIiIiIiLgNJTpERERERERExG0o0SEiIiIiIiIibkPFSEVERERExC3U1NSwfPlysrKyKC8vJzo6mri4OBITE42ttpOTkzl+/LjLyG+Fh4fz0EMPuYYN53MNOT/ncy/1fsmFaJeJDqvVSkVFBb1796ZTp06uzQaHw0FpaSlWq5WQkBCCg7VdmIiIiIjI5chqtTJjxgyKi4uNWHp6Ounp6eTn5zN37lzMZjO5ubnGNpRnUltb6xoynO815Pud773U+yUXol0lOjIzM1mxYgVlZWUAdOrUiYiICKZNm8YVV1zh1HfXrl2sXbuWwsJCI+bv78+kSZOIj49v1VNERERERNxdcnIyxcXF+Pv7k5SURGRkJNu3byc5OZlNmzYRGxtLfHw8d9xxB+Xl5U5j7XY7K1aswG63ExUV5dTW2vleQ77f+d5LvV9yIdpN+uqTTz7h2WefNZIcAKdPn+bgwYPMnz/fabrS9u3bWbhwIYWFhZhMJoKCgjCZTFRXV7N8+XLeeecdo6+IiIiIiLi3pqYmMjMzARg7diyxsbEEBASQkJDA4MGDAdiwYQMAo0aN4he/+IXTf506dcJutxMTE8OsWbOM87bWlmvIubXlXur9kgvRLhIdVVVVvPHGGwB4eXnxwAMP8I9//IMpU6ZgNpuprq5m2bJlRv+1a9cCEBwczN///ncWL17MSy+9REREBADvvPMOdXV1Rn8REREREXFf1dXV2Gw2AAICApzagoKCAMjJyXGKtygrK2PlypX4+fkxf/58PD3PPOn9Yq4hzi7mXur9kvPRLhId2dnZRmJi3LhxDBs2jG7dunHrrbdy0003AZCfn09hYSE1NTWUlpYCMHz4cEJDQ4HmZSujRo0CmqcyFRUVISIiIiIi7i8wMBBvb28AsrKyjLjdbmffvn0A2Gy2M34ZumTJEurq6rjtttvw9/d3bTZczDXE2cXcS71fcj7aRaKj9bKUfv36tWqByMhI4zgzMxM/Pz9CQkKA5gRJawcOHADA29ub3r17O7WJiIiIiIj7GjlyJND8mWHBggWkpKTw6KOPOhWirK+vN46h+fPERx99hKenJxMnTnRqO5MLuYac2YXcS71fcr7aRaLDy8vLOG5dowOgoqLCOG5pmzBhAp06dSIvL49nnnmGTZs28cILL5CWlobZbOaOO+7Aw8PDGCciIiIiIu5t2rRpxpemKSkpLFiwgD179hAXFwdg1PZrbenSpTgcDuLi4rBYLE5tZ3Ih15Azu5B7qfdLzteZFzT9yK666irjeNOmTVx33XX4+flRWlrKli1bjLbKykoAbrrpJmpqanj99dfJyspymoo0evRoxo0bZ/zcVufaukhEREQuZ2ff8l46Dv2t597+8Ic/kJaWRn5+PgEBAQwZMoQ9e/YAzXUaCgoKjL6VlZXGEobevXuf97PRlmvIubXlXur9ci+tV278ENpFouOaa66hf//+HDx4kG+++YYHH3yQ0NBQTpw4QWNjo9HPw8OD06dPs3jxYtLT04HmgqQxMTEUFxdz4MABNm/ezPHjx5k1a9Z3is6IyOXrmS3dXENu579HNtcvko7hcngmQc+liPx4srOzsdlsXHnllYwYMcKIr1q1CoCBAwcaMYC9e/ficDgAzrlFaWttvYacXVvvZXt5v9z997e7/N5uF4kOgDlz5rBs2TI+//xzGhoaOHLkCAEBAUyePJmXXnoJAIvFQnZ2tpHkGDp0KH/4wx8wmUwAvPfee7z11lvk5OTw2WefMXr0aOP85+uHziyJyL/JFudlce5I///qYC6DZxLc67nMKTniGpIOyJ2eSXH25ptvsm3bNiwWC6+88gq+vr5s3ryZr7/+GoA777zT6f1/8803AejSpYvTh+AWW7du5bXXXgNg6tSpjBgxos3XkLNr671sN++Xm//+bvP9aKfaTaLDz8+P2bNnU1JSwuHDhwkMDKRv375Oy1JCQ0ONvZABxowZYyQ5oLnYzFtvvQXA7t27LyjRISIiIiIiHU9iYiKpqalYrVYmTZpEWFiYsbwhISGBQYMGOfU/duwYAN26nfkb+urqao4ePWocQ9uvIWfX1nup90vaol0UIy0sLGT58uUsX76cY8eOcd1119G/f3+8vb3ZuXMn0FywNDY2FrP523/yqVOnjGOAqqoq4/hs+ymLiIiIiIj7iYmJISkpiZCQEGpra8nLy8NisXDnnXcyZ84cp75NTU3Gt/rdu3d3ajuXtlxDzq0t91Lvl7RVu8gGBAcHs2PHDk6dOsXu3bsJCQmhV69ebN261ZjBMWzYMHx8fOjfvz8fffQRAG+88QY9e/akZ8+eVFdXs2LFCuOc/fv3N45FRERERMT93XTTTdx4440UFRXR2NhIeHi4axcAzGYzH374oWvYyfjx4xk/frxr+LyvId/vfO+l3i9pq3aR6PDy8mLChAmsXr2aiooKHnnkEby9vWloaAAgIiKCyZMnA3Ddddexc+dOMjMzOXHiBHPmzCEwMJDq6mqampqA5uI0Y8aMMc4vIiIiIiKXB7PZTGhoqGv4kvoxrnG5+DHu5Y9xDWlf2kWiA+DnP/85np6evPPOO9TW1tLQ0IC/vz8xMTFMmzYNHx8foPkhnTlzJhs3buTDDz+kqqrK2HbWx8eH0aNHk5CQQKdO2gJORERERERE5HLTbhIdAOPGjWPMmDEUFxdjt9sJDw93KjbaonPnziQmJnL77bdTVlZGeXk5gYGBdOvWzamGh4iIiIiIiIhcXtpVogPAw8PjvKcVmc1munXrdtbKuyIiIiIiIiJyedH0BxERERERERFxG0p0iIiIiIiIiIjbaHdLV+TyVVNTw/Lly8nKyqK8vJzo6Gji4uJITEw0arUkJydz/Phxl5HfCg8P56GHHnING8rLy1m9ejVpaWmUlpYSFhZGTEwM06dPx9/f37W7iIiIiIiIdDBKdEi7YLVamTFjBsXFxUYsPT2d9PR08vPzmTt3LmazmdzcXPLy8lqNdFZbW+saMlitVmbOnElhYSEmk4nAwECOHDnC4cOHSUtLY8mSJXTt2tV1mIiIiIiIiHQgSnRIu5CcnExxcTH+/v4kJSURGRnJ9u3bSU5OZtOmTcTGxhIfH88dd9xBeXm501i73c6KFSuw2+1ERUU5tbW2bt06CgsLCQkJ4fnnn6dnz55YrVZmzZrFiRMnePXVV5k1a5brMBEREREREelAlOiQf7umpiYyMzMBGDt2LLGxsQAkJCSwbds2MjMz2bBhA/Hx8YwaNar1UADWrFmD3W4nJibmnIkKq9UKQL9+/ejZsycAFouFiIgITpw4QUNDQ+vuIiIiIiIi0gGpGKn821VXV2Oz2QAICAhwagsKCgIgJyfHKd6irKyMlStX4ufnx/z58/H0PHvubujQoQBkZGRw4MABAA4dOsRnn33m1C4iIiIiIiId19k/FYr8SAIDA/H29qahoYGsrCzuuusuoHlJyr59+wCw2WzU1dXh4+PTeihLliyhrq6OO++883uLid5yyy1UVlayePFiHnjgAfz8/KipqcFkMvHggw8SHx/vOkREREREREQ6GM3okHZh5MiRAGRmZrJgwQJSUlJ49NFHnYqT1tfXG8cA2dnZfPTRR3h6ejJx4kSntjOpqKhg3759NDY2At8WLnU4HOzevdtY2iIiIiIiIiIdl2Z0SLswbdo0Dh48SH5+PikpKaSkpODp6UlcXBwZGRmYTCZjGUuLpUuX4nA4iIuLw2KxOLWdybx589i7dy8BAQE8/PDDDB06lIKCAh5//HF27NhBeXk5L7zwguswERERERER6UCU6JB2ITg4mEWLFvHBBx+wf/9+unbtyvDhw0lLSyMjI4Pg4GA8PDyM/lar1VjWMmTIECN+NjU1Nezfvx+AcePGMWzYMAAGDBjA5MmTWbhwITk5OVRXV3/vEhgRERER+XH8dnGZa8jtLJsR7BrqsN5LO+IackOBrgFph5TokHYhIyOD+vp6oqOjGT9+vBF/7rnnAIiLizNiAGlpaTgcDgAGDx7s1HYmJSUlxpKV8PBwp7aWuh9NTU2UlJQo0SEiIiIiItKBKdEh7cKmTZvYtm0bFouFV155BV9fXzZv3kxBQQHQPAujtaysLAC6dOlC3759ndoAtm7dymuvvQbA1KlTuemmm+jSpQv19fW899573Hzzzfj4+NDQ0MD69euBs59LREREREREOg4lOqRdSExMJDU1FavVyqRJkwgLCyMvLw+AhIQEBg0a5NT/2LFjAHTr1s0p3qK6upqjR48ax2azmSlTprBkyRIOHTrEXXfdRb9+/Thy5IhRhHT69OmYzarPKyIiIiIi0pEp0SHtQkxMDElJSSxatIji4mLy8vKwWCyMHj2a3/72t059m5qa+PrrrwHo3r27U9u5/PKXv8TPz49Vq1ZRWFjIF198AUBoaCh33303Y8eOdRkhIiIiIiIiHY0SHdJu3HTTTdx4440UFRXR2Nj4nVoaLcxmMx9++KFr2Mn48eOdan20SEhI4Gc/+xllZWVYrVYsFst57dgiIiIiIiIiHYMSHdKumM1mQkNDXcOXlMlkUoJDRERERETETakggYiIiIiIiIi4DSU6RERERERERMRtKNEhIiIiIiIiIm5DiQ4RERERERERcRtKdIiIiIiIiIiI21CiQ0RERERERETchhIdIiIiIiIiIuI2lOgQEREREREREbehRIeIiIiIiIiIuA0lOkRERERERETEbSjRISIiIiIiIiJuQ4kOEREREREREXEbSnSIiIiIiIiIiNvwdA2IXCq/XVzmGnI7y2YEu4ZERERERETk30gzOkRERERERETEbSjRISIiIiIiIiJuQ4kOEREREREREXEbSnSIiIiIiIiIiNtQokNERERERERE3IYSHSIiIiIiIiLiNpToEBERERERERG3oUSHiIiIiIiIiLgNJTpERERERERExG0o0SEiIiIiIiIibsPTNSDtU01NDcuXLycrK4vy8nKio6OJi4sjMTERk8kEQHJyMsePH3cZ+a3w8HAeeugh17CTXbt2sWXLFrKysjCbzcTExDB9+nTCw8Ndu4qIiIiIiIi0O0p0dABWq5UZM2ZQXFxsxNLT00lPTyc/P5+5c+diNpvJzc0lLy+v1UhntbW1riEn7777Lv/4xz9wOBx4e3tjs9n45JNP+OKLL3jhhRfo3bu36xARERERERGRdkWJjg4gOTmZ4uJi/P39SUpKIjIyku3bt5OcnMymTZuIjY0lPj6eO+64g/LycqexdrudFStWYLfbiYqKcmprLT8/n+effx6AmTNn8vOf/5ySkhJmzpyJ1WplxYoV/OUvf3EZJSIiIiIiItK+KNHRzjU1NZGZmQnA2LFjiY2NBSAhIYFt27aRmZnJhg0biI+PZ9SoUa2HArBmzRrsdjsxMTHMmjXLtdmwdu1aAKKjo5kwYQIAoaGhLFq0iPLycjp37ty6u4iIiIiIiEi7pERHO1ddXY3NZgMgICDAqS0oKAiAnJwcp3iLsrIyVq5ciZ+fH/Pnz8fT8+xvd0ZGBgCDBw9m+/btbNmyhbKyMgYNGsSdd95JYGCgywgRERERERGR9ke7rrRzgYGBeHt7A5CVlWXE7XY7+/btA8Bms1FXV2e0tViyZAl1dXXcdttt+Pv7uzYb7HY7FRUVAGRmZjJv3jxSU1PJzs7mrbfe4p577uHEiRMuo0RERERERETaHyU6OoCRI0cCzUmIBQsWkJKSwqOPPupUnLS+vt44BsjOzuajjz7C09OTiRMnOrW5qqysxOFwAM2zQ0aNGkVycjJTp07FZDJRWlrK0qVLXUaJiIiIiIiItD9nX8sg7ca0adM4ePAg+fn5pKSkkJKSgqenJ3FxcWRkZGAymYxlLC2WLl2Kw+EgLi4Oi8Xi1Oaq9WyP8PBw/vjHP2Iymbj22ms5fPgw27dvZ9euXTQ1NWE2KzcmIiIiIiIi7ZcSHR1AcHAwixYt4oMPPmD//v107dqV4cOHk5aWRkZGBsHBwXh4eBj9rVarsaxlyJAhRvxsOnfujI+PD3V1dURFRWEymYy2AQMGsH37dk6fPk1lZSVdu3ZtNVJERERERESkfVGiowPIyMigvr6e6Ohoxo8fb8Sfe+45AOLi4owYQFpamrEUZfDgwU5tZzNw4EA+//xzTp486RQvKSkBwMvL6zuzRkRERERERETaG61D6AA2bdrEvHnz+NOf/kRtbS0AmzdvpqCgAIBx48a17m4ULe3SpQt9+/Z1agPYunUrU6dOZerUqWzbtg34tg5IdnY2W7duBeDw4cN8+OGHAMTExDjN9BARERERERFpjzSjowNITEwkNTUVq9XKpEmTCAsLIy8vD4CEhAQGDRrk1P/YsWMAdOvWzSneorq6mqNHjxrHAMOHD2fjxo18+eWXzJ8/n+eff95o8/Dw4L777jPGi4iIiIiIiLRXmtHRAcTExJCUlERISAi1tbXk5eVhsVi48847mTNnjlPfpqYmvv76awC6d+/u1HYuXl5eLFiwgFtuuQV/f38jydG3b18WLlzIVVdd5TJCREREREREpP3RjI4O4qabbuLGG2+kqKiIxsZGwsPDXbsAYDabjeUmZzN+/HinWh8tvL29+fOf/0xTUxPHjx8nMDBQdTlERERERESkQ1GiowMxm82Ehoa6hi85s9lMnz59XMMiIiIiIiIi7Z6WroiIiIiIiIiI21CiQ0RERERERETchhIdIiIiIiIiIuI2lOgQEREREREREbehYqQickFqampYvnw5WVlZlJeXEx0dTVxcHImJiZhMJgCSk5M5fvy4y8hvhYeH89BDD7mGDW+99RafffaZaxiAW2+9lTFjxriGRURERETkMqdEh4i0mdVqZcaMGRQXFxux9PR00tPTyc/PZ+7cuZjNZnJzc8nLy2s10lltba1ryElaWhr79u1zDQPwk5/8xDUkIiIiIiKiRIeItF1ycjLFxcX4+/uTlJREZGQk27dvJzk5mU2bNhEbG0t8fDx33HEH5eXlTmPtdjsrVqzAbrcTFRXl1Obq8OHDAMyePZurrrrKqS0kJMTpZxEREREREVCiQ0TaqKmpiczMTADGjh1LbGwsAAkJCWzbto3MzEw2bNhAfHw8o0aNaj0UgDVr1mC324mJiWHWrFmuzYaioiJjxsfNN9+Mv7+/Sw8REREREZHvUqJDRNqkuroam80GQEBAgFNbUFAQADk5OU7xFmVlZaxcuRI/Pz/mz5+Pp+fZ/xdUUFAAQLdu3fj000959913qaysJDIykqlTp3L11Ve7jBAREREREdGuKyLSRoGBgXh7ewOQlZVlxO12u1FPw2azUVdXZ7S1WLJkCXV1ddx2223fO0OjZdmK1Wrl2WefpaCggNLSUnbu3MnMmTPPmkwREREREZHLmxIdItJmI0eOBCAzM5MFCxaQkpLCo48+6lSctL6+3jgGyM7O5qOPPsLT05OJEyc6tZ1Jy4yOLl26kJSUxKpVq/jDH/6Ap6cnNpuNJUuWuIwQERERERHR0hURuQDTpk3j4MGD5Ofnk5KSQkpKCp6ensTFxZGRkYHJZDKWsbRYunQpDoeDuLg4LBaLU9uZzJgxg3vuuQdfX1/jXLfffjv5+fm8//77fPnll5w6dYrOnTu7jBQRERERkcuZEh0i0mbBwcEsWrSIDz74gP3799O1a1eGDx9OWloaGRkZBAcH4+HhYfS3Wq3GspYhQ4YY8XPp3r27awiAfv36AeBwOCgpKSEsLMylh4iIiIiIXM6U6Pg3eS/tiGvIDQW6BsRNZGRkUF9fT3R0NOPHjzfizz33HABxcXFGDCAtLQ2HwwHA4MGDndrOpLq6mvvuuw+AMWPGMGXKFKPt66+/BsDT05MePXoYcREREREREVCiQ0QuwKZNm9i2bRsWi4VXXnkFX19fNm/ebNTVGDdunFP/lqKlXbp0oW/fvk5tAFu3buW1114DYOrUqYwYMYLGxkaKiop4++23GTJkCAMHDuTLL79k48aNAMTExJxz1xYREREREbk86VOCiLRZYmIiqampWK1WJk2aRFhYGHl5eQAkJCQwaNAgp/7Hjh0DmreKPZPq6mqOHj1qHAP87ne/48knn6S2tpbf//73+Pr6UltbC4CXlxezZ882xouIiIiIiLTQrisi0mYxMTEkJSUREhJCbW0teXl5WCwW7rzzTubMmePUt6mpyVhucra6G2cSHx9PUlIS4eHhAEaSY+DAgSxevNiIi4iIiIiItKYZHSJyQW666SZuvPFGioqKaGxsPGviwWw28+GHH7qGnYwfP96p1keLm2++mZtvvpmysjKsViu9evXC19fXtZuIiIiIiIhBiQ4RuWBms5nQ0FDX8CUXHBxMcHCwa1hEROT/tXfvUXqV9b3AvzOTzOR+D5AhgVxoEhCQcJVGLtVYYoq0oRVaoOVEEQUPePCI1IPlYOAoiijtsQtpuFUhRVCQIHWJXKKNSCUJUBMIIRdIyIVM7gm5TSZz/piVfWZesDWE3PZ8Pmtlrf0+z2+/s1jrYb/7/b7P82wAeBtLVwAAAIDSEHQAAAAApSHoAAAAAEpD0AEAAACUhqADAAAAKA1BBwAAAFAa73nQsWrVqsyfPz+NjY2VXQAAAAB7VIfKhndrxowZufvuu7N69eokSceOHTNs2LBMmDAhgwYNKupuuumm/Md//Efx+p3U19fnm9/8ZmVzG5dddlnWrVtX2VyYPHlyZRMAAABQcu/JjI6nn346t9xySxFyJEljY2PmzJmTG2+8MYsXL25VvfvWr1//n4YcAAAAQPu02zM61q9fn/vuuy9JUldXl0suuSQjRozI9OnTc++992bDhg2ZNGlSJk6cmCQ5+uij06NHj9ZvkSTZuHFjXnjhhSTJQQcdVNHb1qJFi4rjiy66KL17927VCwAAALRXux10zJ49O5s2bUqSjBs3LqNHj06SjB07NosWLcrUqVMzb968LFu2LAMGDMjZZ5/d+vTCHXfckSTp169fPvOZz1T0trUz6Kiurs5HPvKRdOzYsaICAAAAaI92e+lK62UpRxxxRKueZPjw4cXxjBkzWvW0NW/evDz99NOpra3N//yf//MdZ3y0tjPoGDBgQLZu3Zp/+7d/y5QpUzJz5swidAEAAADan92e0VFXV1cct96jI0nWrl1bHFf27bRjx47cddddaW5uzpgxY3L44YdXlrzNznClsbExX/ziF9v8nT59+uTKK69sE7Lsirlz51Y27SFmoZTB3hsv7L5+lQ2lYzweaMo/JpOyjUuf3WVQrjHZHpT/WlmuMek6eaDbW+Px3X5f/33tdtAxdOjQ4vinP/1pTjnllHTr1i0rV67ME088UfT9rs1Dn3jiibz22mvp0KFDxo0bV9n9Njt27Mgbb7yRJFmxYkUOOeSQnHzyyXn99dfz5ptvZvXq1fnWt76Vb3/72+ncuXPF2cDv8nKDDyYAAODAt9tBxzHHHJORI0dmzpw5Wbp0aa688soMGDAgS5YsSVNTU1FXU1PT6qwW69atywMPPJAkOe2009KnT5+Kirdbv359kf4MHjw4F1xwQaqqqtLU1JRbb701M2bMyPr16/Pkk0/+zv1A/jN7Olna6eWGhZVNHID21njZG4zJA1+ZxmO78MQ7z3QsmzKNS9fJcijTmGwX2sG1skxj0nXywFeW8bjbe3Qkyec///mcdNJJSZItW7Zk4cKF6dSpUz71qU8VNX379i2Od3rqqaeKPTU+8IEPVPS+s169euXaa6/NtddemwsvvDBVVVVJWoKU8ePHF3Wvv/56cQwAAAC0D7s9oyNJunXrlquuuioNDQ1ZsGBBevbsmcGDB+f5558vagYMGNDqjBbPPvtskqS2tjYjR46s6H1na9euLcKRfv36pba2tujr1q1bcbx58+biGAAAAGgfdjvoWLZsWR577LEkyahRo3LKKacUfc8880ySlg1LTzzxxKI9aTlv56aiI0eOfMdHxG7fvr0ILKqrq9O1a9c8/fTTefDBB5Mk48ePz8c//vGiftasWcXxkCFDimMAAACgfdjtoKNPnz6ZNm1atm3blpkzZ+aggw5KfX19nnzyyeKRsqNHj06XLl3anPfKK68Ux7/rSSu//e1vc/PNNydJ6uvr881vfjNHHXVU0f+zn/0sPXv2zHHHHZdXX301kydPTpJ06NAhJ598clEHAAAAtA+7HXTU1dXl3HPPzf3335+1a9fmmmuuSadOnbJly5YkybBhw3LBBRdUnJUsXbq0OH6n/Tt+lxEjRmTMmDF54oknsmnTptxzzz2VJTnvvPMyaNCgymYAAACg5HY76EiSc845Jx06dMjDDz+ct956K1u2bEn38ZZ4mQAAIABJREFU7t1z7LHHZsKECW+bzZEkS5YsKY5/n6ettHbxxRenvr4+U6ZMydq1a4v2fv365eKLL84JJ5zQqhoAAABoL96ToCNJxo0bl7POOisrVqzI9u3bM3DgwOKJKO/k6quvrmx6m1GjRhXLUVqrqanJ2LFjc9ZZZ2XNmjVZvXp1+vXrl169elWWAgAAAO3IexZ0JC0BxDs9XWVPqaqqSp8+fXZ5RggAAABQTtWVDQAAAAAHKkEHAAAAUBqCDgAAAKA0BB0AAABAaQg6AAAAgNIQdAAAAAClIegAAAAASkPQAQAAAJSGoAMAAAAoDUEHAAAAUBqCDgAAAKA0BB0AAABAaQg6AAAAgNIQdAAAAAClIegAAAAASkPQAQAAAJSGoAMAAAAoDUEHAAAAUBqCDgAAAKA0BB0AAABAaQg6AAAAgNIQdAAAAAClIegAAAAASkPQAQAAAJSGoAMAAAAoDUEHAAAAUBqCDgAAAKA0BB0AAABAaQg6AAAAgNIQdAAAAAClIegAAAAASkPQAQAAAJSGoAMAAAAoDUEHAAAAUBqCDgAAAKA0BB0AAABAaQg6AAAAgNIQdAAAAAClIegAAAAASkPQAQAAAJSGoAMAAAAoDUEHAAAAUBqCDgAAAKA0BB0AAABAaQg6AAAAgNIQdAAAAAClIegAAAAASkPQAQAAAJSGoAMAAAAoDUEHAAAAUBqCDgAAAKA0BB0AAABAaQg6AAAAgNIQdAAAAAClIegAAAAASkPQAQAAAJSGoAMAAAAoDUEHAAAAUBqCDgAAAKA0BB0AAABAaXSobAAAANqfX//613nwwQczb9689O3bN8cee2zGjx+fwYMHJ0lmz56dO+64o+1JFS655JK8733vq2wG2KsEHQAA0M7de++9ufPOO4vXGzZsyGuvvZann346N998c0aMGJH169fnhRdeaHXW261bt66yCWCvE3QAAEA79sorr+Suu+5KkvzxH/9xLr300mzcuDHf+MY38tJLL+WrX/1q/vmf/zmDBw/OZZddVnF2MmPGjPzmN79J586dc9hhh1V2A+x1gg4AAGjHZs6cmebm5lRVVeVzn/tcunTpkr59++ayyy7LFVdckUWLFuXFF1/M+9///px33nltzt28eXMeeOCBVFdX57rrrsvAgQPb9APsCzYjBQCAdmzFihVJkpqamnTu3Llo79WrV3H80ksvFcetfe9738uqVaty0UUX5QMf+EBlN8A+IegAAIB27OCDD06SbN++PbNnzy7aW+/HsWbNmuJ4p8WLF+eHP/xh6urq8hd/8ReV3QD7jKADAADasTPPPDMdOrSsaL/hhhsyZcqU3HffffnHf/zHombz5s3F8U7/8A//kO3bt+ejH/1ounfvXtkNsM8IOgAAoB075JBDcvnll6empiYrVqzIt7/97dxxxx0ZPnx4unbtmiTp06dPm3Oef/75TJ8+PUkybty4Nn0A+5rNSAEAoJ0bP358jjzyyEydOjUNDQ0ZMWJEzjrrrIwfPz5J0r9//zb1U6dOTZL06NEjRxxxRJs+gH1N0AEAAO3YihUr8vLLLydJPvGJT6S2tjZJMm3atOJpLCeddFJR39zcnGnTpiVJRo0alaqqqqIPYH8g6AAAgHZs8+bNuf7665Mkn/70p/OXf/mX2bp1a+68884kyfHHH19sWJokixYtyurVq5MkRx55ZNEOsL8QdAAAQDt2+OGH58QTT8z06dNz++2356mnnsqyZcuycePG9OjRI5dffnmb+kWLFhXHlUtaAPYHNiMFAIB27rrrrsuHP/zhVFVV5dVXX82WLVty9NFH51vf+laGDh3aplbQAezvzOgAAIB2rnv37vnyl7+cq666KsuXL8+hhx6aTp06VZYlSS688MJceOGFlc0A+w1BBwAAkCTp2rVrhg0bVtkMcECxdAUAAAAoDUEHAAAAUBqCDgAAAKA0BB0AAABAaQg6AAAAgNIQdAAAAAClsV8GHatWrcr8+fPT2NhY2QUAAADwO3WobNiXZsyYkbvvvjurV69OknTs2DHDhg3LhAkTMmjQoCTJvHnzct1117U+7R1dccUVOfXUUyubAQAAgBLbb2Z0PP3007nllluKkCNJGhsbM2fOnNx4441ZvHhxq2oAAACAt9svZnSsX78+9913X5Kkrq4ul1xySUaMGJHp06fn3nvvzYYNGzJp0qRMnDgx3bt3zwc/+MGKd2jx0ksvZfXq1amqqkr//v0ruwEAAICS2y+CjtmzZ2fTpk1JknHjxmX06NFJkrFjx2bRokWZOnVq5s2bl2XLlmXAgAG5/PLLW5+eJFmxYkWuvvrqJMlf/uVf5ogjjqioAAAAAMpuv1i60npZSmVAMXz48OJ4xowZrXrauueee9LY2JjRo0fnYx/7WGU3AAAA0A7sF0FHXV1dcdx6j44kWbt2bXFc2bfTc889lxdeeCEdO3bMRRddVNkNAAAAtBP7xdKVoUOHFsc//elPc8opp6Rbt25ZuXJlnnjiiaJv3bp1xfFOW7duzfe///0kyR/90R+lZ8+eFRW7Zu7cuZVNe0jHygYOQHtvvOwNxuSBrlzjsT3oV9lQSuUal66TZVCuMdkelP9aWa4x6Tp5oNtb47H1yo09Yb8IOo455piMHDkyc+bMydKlS3PllVdmwIABWbJkSZqamoq6mpqaVme1ePjhh7Ny5cpUV1fn7LPPruwGAIBSernBl0qAd7JfBB1J8vnPfz6TJk3Kc889ly1btmThwoXp0aNHLrjggnz3u99NkvTt27fNOdu2bcvjjz+epGVvj379dj/x3dPJ0k4vNyysbOIAtLfGy95gTB74yjQe24Un3nk5ZtmUaVy6TpaDMcn+xphkf1KW8bjfBB3dunXLVVddlYaGhixYsCA9e/bM4MGD8/zzzxc1AwYMaHVG8uKLL2bLli1JWmaFAAAAAO3bfhF0LFu2LI899liSZNSoUTnllFOKvmeeeSZJy4alJ554YtGeJM8++2xx/P73v79VDwAAANAe7RdBR58+fTJt2rRs27YtM2fOzEEHHZT6+vo8+eSTxSNlR48enS5durQ5r/VGKYcddlirHgAAAKA92i+Cjrq6upx77rm5//77s3bt2lxzzTXp1KlTsSxl2LBhueCCC9qcs2XLluJxs926dUttbW2bfgAAAKD92S+CjiQ555xz0qFDhzz88MN56623smXLlnTv3j3HHntsJkyY8LbZHMuWLUtzc3OSt29SCgAAALRP+03QkSTjxo3LWWedlRUrVmT79u0ZOHBgqqqqKsuSJEOGDMnkyZMrmwEAAIB2bL8KOpKkpqbmbU9XAQAAAPh9VFc2AAAAAByoBB0AAABAaex3S1cA4N349a9/nQcffDDz5s1L3759c+yxx2b8+PEZPHhwm7oNGzbkBz/4QWbOnJnXXnst9fX1Oeecc3L22Wenuvo/z/+feeaZ/PCHP8y8efNSU1OTYcOG5dxzz80f/uEfVpYCALCPCDoAOODde++9ufPOO4vXGzZsyGuvvZann346N998c0aMGJEkWbNmTb7whS9kwYIFSZJOnTpl/vz5+fa3v50FCxbkf/yP/1G8R6XJkydn0qRJSZIuXbqkqakpM2bMyIwZM/LJT34yF110UcUZAADsC//5T1cAsJ975ZVXctdddyVJ/viP/zg//OEPc8899+Soo47Khg0b8tWvfrWoveWWW7JgwYIMGTIkP/jBD/Loo4/m4osvTpI88sgjef3114va1jZt2pS77747STJhwoQ8+uijeeyxx/KZz3wmSXL33XdnzZo1rU8BAGAfEXQAcECbOXNmmpubU1VVlc997nPp27dvDj/88Fx22WVJkkWLFuXFF1/M0qVL88wzzyRJLrvsshx00EHp0KFD/vqv/zq33XZbbrvttvTq1av1WxfWr1+f7du3J0lOPfXUYonLySefnCTZsWNHtm3bVtQDALDvWLoCwAFtxYoVSVoeT965c+eivXVo8dJLL6Vr165FIDJ06ND83//7f/PKK6+kf//++dCHPpTTTjutqK90yCGHZODAgXnjjTfywAMP5KqrrkpVVVUefPDBJMmgQYNy8MEHV5wFAMC+IOgA4IC2M2DYvn17Zs+enaOPPjpJ8sILLxQ1a9asyebNm5MknTt3zhe+8IW89tprRf/UqVPzV3/1V7n00kuLtkrf+MY3MnHixDzxxBP5xS9+kerq6mzdujXDhw/PDTfcUFkOAMA+YukKAAe0M888Mx06tOT2N9xwQ6ZMmZL77rsv//iP/1jUbN68udhDY9OmTVm7dm2uvfba3HTTTRk2bFiS5P777y82KX0nc+bMyfLly5MkjY2NxVKV5cuX58UXX2xdCgDAPiToAOCAdsghh+Tyyy9PTU1NVqxYkW9/+9u54447Mnz48HTt2jVJ0qdPn3Tv3r045/LLL8+YMWNyyimn5Nprr02SNDc3F3t4VHrhhRcyceLErF27NmPHjs19992Xxx57LOeee27Wr1+fr371q5k+fXrlaQAA7AOWrgBwwBs/fnyOPPLITJ06NQ0NDRkxYkTOOuusjB8/PknSv3//YulKkhx55JHF8ZAhQ1JXV5etW7emoaGhaG/t2WefTZLU1tbm8ssvL0KTz372s3nqqaeydu3a/Pu//3tOPPHE1qcBALAPCDoAOKCtWLEiL7/8cpLkE5/4RGpra5Mk06ZNKzYfPemkk7Jq1arinOXLl2fgwIFJkg0bNmTr1q1JkgEDBhQ1rS1btixJ0qNHjzYzQ6qrq1NXV5ckefPNN4t2AAD2HUtXADigbd68Oddff32uv/76PPTQQ0mSrVu35s4770ySHH/88Tn44INz1FFHFUHGXXfdlQ0bNmTHjh35p3/6p+K9jjnmmCTJFVdckf/23/5bPve5zyX5/zNAVq5cmccff7yo/+Uvf1kEHK1niQAAsO+Y0QHAAe3www/PiSeemOnTp+f222/PU089lWXLlmXjxo3p0aNHLr/88qL28ssvz/XXX5+XX3455557bmpra7Np06YkyR/90R/lfe97X5Jk8eLFWbduXfr06ZMkGTt2bKZMmZJly5bla1/7Wn784x+npqYms2fPTpIceuihGTduXMsfAQBgnzKjA4AD3nXXXZcPf/jDqaqqyquvvpotW7bk6KOPzre+9a0MHTq0qPvgBz+Y//2//3eGDh2apqambNq0KbW1tTnvvPPypS99qdU7ttWrV6/ccsst+dCHPpTq6uq8/PLLmTVrVqqqqvKRj3wkt9xyS3r27Fl5GgAA+4AZHQAc8Lp3754vf/nLueqqq7J8+fIceuih6dSpU2VZkuS0007Laaedlg0bNmTVqlUZNGhQampq2tT8+Mc/bvM6adm/4+/+7u/yxS9+McuXL09zc3Pq6+uLPUEAANg/CDoAKI2uXbtm2LBhlc3vqHv37m02Fv191dXV5fDDD69sBgBgP2HpCgAAAFAagg4AAACgNAQdAAAAQGkIOgAAAIDSEHQAAAAApSHoAAAAAEpD0AEAAACUhqADAAAAKA1BBwAAAFAagg4AAACgNAQdAAAAQGkIOgAAAIDSEHQAAAAApdGhsgEA9rVHfrWwsqmEelY2AADwHjCjAwAAACgNQQcAAABQGoIOAAAAoDQEHQAAAEBpCDoAAACA0hB0AAAAAKUh6AAAAABKQ9ABAAAAlIagAwAAACgNQQcAAABQGoIOAAAAoDQEHQAAAEBpCDoAAACA0hB0AAAAAKUh6AAAAABKQ9ABAAAAlIagAwAAACgNQQcAAABQGoIOAAAAoDQEHQAAAEBpCDoAAACA0hB0AAAAAKUh6AAAAABKQ9ABAAAAlIagAwAAACgNQQcAAABQGoIOAAAAoDQEHQAAAEBpCDoAAACA0hB0AAAAAKUh6AAAAABKQ9ABAAAAlIagAwAAACgNQQcAAABQGoIOAAAAoDQEHQAAAEBpCDoAAACA0hB0AAAAAKUh6AAAAABKQ9ABAAAAlIagAwAAACgNQQcAAABQGoIOAAAAoDQEHQAAAEBpCDoAAACA0hB0AAAAAKUh6AAAAABKQ9ABAAAAlIagAwAAACgNQQcAAABQGu950LFq1arMnz8/jY2NlV3vaPPmzZk7d25WrVpV2QUAAACwSzpUNrxbM2bMyN13353Vq1cnSTp27Jhhw4ZlwoQJGTRoUEV1MmvWrDzwwANZsGBBduzYkSQZMmRIJkyYkCOOOKKi+u0uu+yyrFu3rrK5MHny5MomAAAAoOTekxkdTz/9dG655ZYi5EiSxsbGzJkzJzfeeGMWL17cqrol5Lj55pszb9687NixI506dUqSLFy4MF/72teydOnSNvWV1q9f/5+GHAAAAED7tNszOtavX5/77rsvSVJXV5dLLrkkI0aMyPTp03Pvvfdmw4YNmTRpUiZOnJgk2bp1a2699dY0NjamT58+ueaaa1JfX5+f//zn+d73vpfNmzdnypQp+cxnPtP6z7SxaNGi4viiiy5K7969W/UCAAAA7dVuBx2zZ8/Opk2bkiTjxo3L6NGjkyRjx47NokWLMnXq1MybNy/Lli3LgAED8qtf/aqob72sZezYsVmzZk3eeuutdO/eveXNf4edQUd1dXU+8pGPpGPHjhUVAAAAQHu020FH62UplXtrDB8+PFOnTk3SsofH2WefnWnTpiVJunTpkuOOOy4rV67MwoUL07lz5/zZn/1ZOnfu3Ood3tnOoGPAgAHZunVrnn322axZsyYDBw7MyJEj06VLl4ozAAAAgPZgt4OOurq64rj1Hh1Jsnbt2uJ4Z9/y5cuTJPX19XnooYfy8MMPFzW1tbW56KKLMmbMmKLtnewMVxobG/PFL36xzd/p06dPrrzyygwfPrxo2xVz586tbNpDzEIpg703XvYGY/JAZzyyPzIu2d8Yk+xvjEn2J3trPL7b7+u/r93ejHTo0KHF8U9/+tNs3LgxSbJy5co88cQTRd+6deuyffv2YhPRhQsX5uGHH07v3r1z2GGHpaqqKtu2bctdd92VX/7yl8V5lXbs2JE33ngjSbJixYp06tQpJ598cg4++OAkLYHKt771rWzevLn1aQAAAEA7sNszOo455piMHDkyc+bMydKlS3PllVdmwIABWbJkSZqamoq6mpqa7NixI83NzUmSpqamnHHGGbn00ktTVVWV559/PjfffHOS5IEHHsjpp59enNva+vXri/Rn8ODBueCCC1JVVZWmpqbceuutmTFjRtavX58nn3wyZ599dsXZ/7U9nSzt9HLDwsomDkB7a7zsDcbkgc94ZH9kXLK/MSbZ3xiT7E/KMh53e0ZHknz+85/PSSedlCTZsmVLFi5cmE6dOuVTn/pUUdO3b9/U1tYWj5JNkvPPPz9VVVVJklGjRmXYsGFJWmZltF6O0lqvXr1y7bXX5tprr82FF15YnF9TU5Px48cXda+//npxDAAAALQPuz2jI0m6deuWq666Kg0NDVmwYEF69uyZwYMH5/nnny9qBgwYkKRlD42lS5emqqoqPXr0KPp39s2fPz9Jsm3btjZ9O61du7Z4aku/fv1SW1tb9HXr1q04tnQFAAAA2p/dDjqWLVuWxx57LEnLrIxTTjml6HvmmWeStGxYeuKJJyZJTjjhhCxdujTNzc159dVXM2LEiCQtS1lee+21or5///7Zvn17EVhUV1ena9euefrpp/Pggw8mScaPH5+Pf/zj2WnWrFnF8ZAhQ4pjAAAAoH3Y7aCjT58+mTZtWrZt25aZM2fmoIMOSn19fZ588snMmDEjSTJ69Ojika9nnHFGHn300STJ7bffnksvvTS9e/fOI488koaGhiTJSSedlKqqqvz2t78t9u2or6/PN7/5zRx11FHZ6Wc/+1l69uyZ4447Lq+++momT56cJOnQoUNOPvnkog4AAABoH3Y76Kirq8u5556b+++/P2vXrs0111yTTp06ZcuWLUmSYcOG5YILLijq6+vrc8EFF2Ty5MlZvnx5Jk6cWPQlSffu3XPhhRe2aWttxIgRGTNmTJ544ols2rQp99xzT2VJzjvvvAwaNKiyGQAAACi53Q46kuScc85Jhw4d8vDDD+ett97Kli1b0r179xx77LGZMGFCMZtjp7PPPjudOnXKz3/+87zxxhtpbm5OdXV1jj322HzqU59Kz54929RXuvjii1NfX58pU6a02bS0X79+ufjii3PCCSe0qgYAAADai/ck6EiScePG5ayzzsqKFSuyffv2DBw4sHgiyjsZM2ZMxowZk40bN6ahoSH19fWpq6trUzNq1KhiOUprNTU1GTt2bM4666ysWbMmq1evTr9+/dKrV6/KUgAAAKAdec+CjqQlgNj5dJXfV7du3do8LWVXVFVVpU+fPunTp09lFwAAANAOVVc2AAAAAByoBB0AAABAaQg6AAAAgNIQdAAAAAClIegAAAAASkPQAQAAAJSGoAMAAAAoDUEHAAAAUBqCDgAAAKA0BB0AAABAaQg6AAAAgNIQdAAAAAClIegAAAAASkPQAQAAAJSGoAMAAAAoDUEHAAAAUBqCDgAAAKA0BB0AAABAaQg6AAAAgNIQdAAAAAClIegAAAAASkPQAQAAAJSGoAMAAAAoDUEHAAAAUBqCDgAAAKA0BB0AAABAaQg6AAAAgNIQdAAAAAClIegAAAAASkPQAQAAAJSGoAMAAAAoDUEHAAAAUBqCDgAAAKA0BB0AAABAaQg6AAAAgNIQdAAAAAClIegAAAAASkPQAQAAAJSGoAMAAAAoDUEHAAAAUBqCDgAAAKA0BB0AAABAaQg6AAAAgNIQdAAAAAClIegAAAAASkPQAQAAAJSGoAMAAAAoDUEHAAAAUBqCDgAAAKA0BB0AAABAaQg6AAAAgNIQdAAAAAClIegAAAAASkPQAQAAAJSGoAMAAAAoDUEHAAAAUBqCDgAAAKA0BB0AAABAaQg6AAAAgNIQdAAAAAClIegAAAAASkPQAQAAAJSGoAMAAAAoDUEHAAAAUBqCDgAAAKA0BB0AAABAaQg6AAAAgNIQdAAAAAClIegAAAAASkPQAQAAAJSGoAMAAAAoDUEHAAAAUBqCDgAAAKA0BB0AAABAaQg6AAAAgNIQdAAAAAClIegAAAAASkPQAQAAAJSGoAMAAAAoDUEHAAAAUBr7ZdCxatWqzJ8/P42NjZVd7+iNN97I66+/nq1bt1Z2AQAAAO1Ih8qGfWnGjBm5++67s3r16iRJx44dM2zYsEyYMCGDBg1qU9vY2Jjvfe97mT59etatW5ckqa2tzdixY/MXf/EX6dBhv/pPAwAAAPaC/WZGx9NPP51bbrmlCDmSljBjzpw5ufHGG7N48eKiffv27bn11lvz5JNPZt26damrq0tVVVW2bduWKVOm5J577ilqAQAAgPZjvwg61q9fn/vuuy9JUldXl89+9rP5h3/4h/zN3/xNqqurs2HDhkyaNKmof/TRR/P8888nSc4555x897vfza233lrM+njqqafS0NBQ1AMAAADtw36xvmP27NnZtGlTkmTcuHEZPXp0kmTs2LFZtGhRpk6dmnnz5mXZsmU5+OCD89RTTyVJhgwZkvPPPz9VVVXp379/JkyYkGnTpiVJ1q1bl/79+7f8AQAAAKBd2C+CjtbLUo444ohWPcnw4cMzderUJC17eAwZMiSrVq1Kkpx66qnZvn17Xn/99TQ0NOTwww/PJz/5yVRVVbV6BwAAAKC92C+Cjrq6uuK49R4dSbJ27driePXq1encuXPxura2NldffXVWrFhRtI0cOTKf/exn07dv36INAAAAaB+qXnnlleakZebEvvLb3/42X/va15Ik9fX1uf7669OtW7esXLky119/fRF+nHrqqTn44IPz4x//OElSU1OTJDnssMPS0NCQjRs3JkkOPvjgfPOb3yz6d8XcuXMrmwAAAID3yJ7IH3Z+lx8xYkTVfjGj45hjjsnIkSMzZ86cLF26NFdeeWUGDBiQJUuWpKmpqairqalp87pjx475yle+kkGDBmXr1q35+te/njlz5uTNN9/Mv/3bv+XMM88sagEAAIDy2y+CjiT5/Oc/n0mTJuW5557Lli1bsnDhwvTo0SMXXHBBvvvd7yZJ+vbtm+7duxfn/OEf/mHxpJW6urqcc845mTNnTpJk/vz57yro2BPJEgAAALB37DdBR7du3XLVVVeloaEhCxYsSM+ePTN48ODiMbJJMmDAgHTs2LF43bt37+I4aQlCdtq6dWurHgAAAKA92C+CjmXLluWxxx5LkowaNSqnnHJK0ffMM88kaZmxceKJJyZpWbLS2NiYV155pahLknnz5hXHO2d6AAAAAO3HfhF09OnTJ9OmTcu2bdsyc+bMHHTQQamvr8+TTz6ZGTNmJElGjx6dLl26JElOPPHE/PrXv86sWbPy4IMP5swzz8ySJUvygx/8IEnLXh7HH3988f4AAABA+7BfPHUlSaZMmZL777+/eN2pU6ds2bIlSTJs2LB86UtfKoKONWvW5IYbbsjy5cuL+tbGjx+fj3/845XNAAAAQAm1fupKdUXfPnPOOefkoosuSteuXZMkW7ZsSffu3TN69Og2IUfSsjfH3/3d3+WEE05o096jR498+tOfFnIAAABAO7XfzOjYqampKStWrMj27dszcODAVFVVVZa00dzcnDfeeCOdO3dOv379KrsBAACAkms9o2O/2KOjtZqamgwYMKCy+Xeqqqqy8SgAAACQJNlvlq4AAAAA7C5BBwAAAFAagg4AAACgNAQdAAAAQGkIOgAAAIDSEHQAAAAApSHoAAAAAEpD0AEAAACUhqCDvaKpqSmLFi3KwoUL09jYWNkN74m1a9dmzpw5efPNN9Pc3FzZ3ca6desyd+7crF69urIL9gljkr1l8+bNmTt3blatWlXZ9TbGJXvali1bsnDhwt/rHtH9JPvSrlwPd6WWPaNDZQPsilWrVuXKK69HKDpkAAANrklEQVRMc3Nzrrjiipx66qlt+nfs2JGHH344jzzySLZv354kqa6uzpgxY3LhhRemY8eOberh3Zg7d24mTZqUJUuWFG39+/fPn//5n+f0009vVZm88cYb+c53vpNFixYVbQcddFAuv/zyDB8+vFUlvDc2bNiQL33pS1m9enW6dOmSO+64o02/McneMmvWrDzwwANZsGBBduzYkSQZMmRIJkyYkCOOOKJNrXHJnrZu3brcf//9mTZtWpqampK03CMee+yx+cQnPpF+/foVte4n2VP+q+8yya5dD3ellj3LjA7etebm5jz44IP/6S/nt99+e370ox8VH0pJy4fV448/nq9//eutKuHdmTdvXr7yla+0CTmSpKGhId/97nfzs5/9rGhbvHhxvvzlL7f58EmSFStW5IYbbsisWbPatMPuam5uzm233fY7f9ExJtlbZs2alZtvvjnz5s3Ljh070qlTpyTJwoUL87WvfS1Lly4tao1L9rTNmzfnpptuyi9+8Ys0NTWlU6dO6dKlS3bs2JEXXnghX/7yl7Nhw4ai3v0ke8Lv811mV66Hu1LLnifoYJc0Nzdn9uzZmTp1aiZOnJhf/vKXlSWFxYsXZ9q0aUmSQYMG5cYbb8xNN92UESNGJEleeumlvPjii61PgV125513prm5OR06dMif/umf5uabb86ll16ampqaJMkPfvCD4pfLhx56KNu2bUuS/NVf/VX+/u//Pp/85CdTU1OTpqamPPDAA8X7wnvhJz/5SV544YXK5oIxyd6wdevW3HrrrWlsbEyfPn3y9a9/PZMmTcrf/M3fJGn50jllypSi3rhkT3vuuefy+uuvJ0n+9E//NJMmTcodd9yRyy67LEmyfv36/OQnP0nifpL31q58l0l27Xq4K7XseYIOdsmOHTvyf/7P/8k//dM/5ZVXXqnsbuNf//Vfi4T0kksuydChQ3PYYYfls5/9bKqqqpK0fAmAd2vdunXFjdLRRx+d888/P4ceemjOPPPMfOADH0jSsvZ3yZIlaWhoyG9+85skybHHHpuPfexj6d+/fz784Q/ntNNOS9IyO2TOnDktbw67ae7cuXnggQdSXV2dHj16VHYbk+w1v/rVr7Jp06YkyYQJEzJo0KDU1NRk7Nix+djHPpYPfehD6d27dxLjkr1j4cKFSVqWn/z5n/958ePEaaedVixZ2TlT0/0k76Vd+S6zK9fDXall7xB0sMu6d+9e/Kurq6vsLrzxxhtJki5duuQP/uAPivZ+/fpl4MCBbWrg3diyZUs++tGPFv/eSW1tbQ455JAsWbKkuFE67rjj2tS0fm1M8l7YuHFjvvOd76SpqSkf//jHU19fX1liTLLX7Pw1vEuXLjnuuOOycuXKPPfcc5k1a1b+7M/+LJdccknOP//8JMYle8fQoUOTtHzpbP3F78033yw2yd157+h+kvfa7/tdZleuh7tSy95hM1J2SU1NTW6//fbi9Y9+9KP86Ec/alXx/61cuTJJywY8lQ466KAsXrw469evT2Njo02keFcOPvjg/PVf/3XxetmyZZk3b15mz56dX/3qV0mSj370o+nYsWMxHpOWjUpbaz1GW9fBu3X77bdn5cqVOeaYY3LOOee847RqY5K9Zfny5UmS+vr6PPTQQ3n44YeLvtra2lx00UUZM2ZMEuOSveP444/PH/zBH+TVV1/NbbfdltGjR6dTp0555pln0tzcnMMOO6z4Fdz9JO+ld/NdJtm16+Gu1LLnCDrYIxobG7N+/fokLTdRlXZugtbc3JxVq1blkEMOqaiAXffCCy/k+9//fvH69NNPL36lbP0Yxcr0fud4TNrWwbvxr//6r5kxY0Z69erVZmp1JWOSvWH79u1Zt25dkpblAvPmzUvv3r3TvXv3LF68ONu2bctdd92V2tranH766cYle0XXrl1z9dVX59prr01DQ0ObpSddunTJVVddlT59+rifZJ/aleth68/6/6qWvcPSFfaI6ur/P7TeaSfjnZtDJm1rYXcccsghOf7444v1vb/85S9z4403ZtOmTW3GWevxl7Qdo8Yju2P+/Pn5l3/5l1RVVeW///f//o57c+xkTLI37NixoxhPTU1NOeOMM/Kd73wnN910U77whS8UdTs3yTMu2RtefPHFXH311WloaEhNTU2OPvronHnmmenRo0c2bdqUL33pS5k6dar7SfapXbke7kote4cZHewRNTU16dWrV9asWZMtW7ZUdhdtVVVV6dOnT0UvvDujRo3KqFGjsmPHjtx222351a9+lZdeeinPPfdc+vbtW9RVjsnNmzcXx63rYFf95Cc/SVNTU/r165ff/OY3xcZkO5cObNu2Lffcc0/69u1rTLJX1NbWplOnTsUYO//884tfHkeNGpVhw4Zl/vz5Wb16ddauXWtcslf88Ic/LGYa3XjjjTn88MOTtDxt5X/9r/+V1atX5/77788ZZ5zhfpJ9Zleuh7tSy94hUmKP2fk/8ptvvvm2FH7nTX/Pnj3ToYO8jXdnypQp+du//dv87d/+bVavXl20V1dX54Mf/GDx+vnnn2/zwbJz/L3T652zQeDd2PkrzsqVK/P4448X/9auXZukZRnB448/nmeffdaYZK/Z+QWwqqrqbbOMWn853LZtm3HJHrd27dosWLAgSXLkkUcWIUeS9OjRIyeffHKSltBj/vz57ifZZ3blergrtewdgg72mEGDBiVpuXH6j//4j6J98eLFxf/wO2vg3airq8uiRYuyaNGi/Pa3v23TN3fu3OK4V69eOfTQQ4tfMadPn170Jclzzz1XHO/cwR3ejUMPPTQjR45827/OnTsnaQnhRo4cmcGDBxuT7DUnnHBCkpbp06+++mrR3tTUlNdeey1Jy/W0f//+xiV7XHV1dRFYbNu2raK3JeDYqaamxv0k+8yuXA93pZa9Q/TJHjNu3LhMnTo1zc3N+f73v5/m5ubU1tbm/vvvLz7gPvaxj1WcBb+/o446KjU1NWlqasrkyZPTqVOnDB06NC+88EJ+/vOfF3Xve9/70q9fv5x66ql55plnMm/evEyePDlnnHFGZs6cWSwvGD58eIYPH16cB7vqvPPOq2xKkkycODFz5sxJp06dct111xXtxiR7wxlnnJFHH300ScsTgS699NL07t07jzzySBoaGpIkJ510Uqqqqlwr2eN69OiRAQMGZNmyZZk/f34effTR/Mmf/Emqq6vz7//+73n22WeTtGxKevjhh7ufZJ/Z1evhrtSy5wk62GMOPfTQnH766fnFL36RpUuX5hvf+Eab/mOOOSZHH310mzbYFYMGDcrZZ5+dRx55JBs2bMjf//3fV5Zk9OjROemkk5Ik48ePz4wZM7J169b85Cc/abPLe01Nze/8kgp7ijHJ3lBfX58LLrggkydPzvLlyzNx4sQ2/d27d8+FF15YvDYu2dMuvfTSfPWrX01jY2P+5V/+JQ899FA6dOiQt956K0nLMqvLLrss1dXV7ifZp3blergrtex5NVdcccX1iY1ReHdefvnlvPzyy0mSU0455W1TB0844YR06NAhr776apqampIkHTp0yNixY/PpT3/azsPstve973056KCDMn/+/DabP/Xo0SPnnXdezjvvvGKc7Vz7++qrrxZ7JiTJgAEDcvXVV2fEiBFFG7yXfvGLX2TlypXp2LFjzjnnnKLdmGRvGT58eHr27JmVK1dmw4YNSVqWELz//e/PNddck169ehW1xiV7Wr9+/XL00UdnzZo1efPNN9PU1JTGxsYkyciRI/PpT38673//+4t695PsKf/Vd5lduR7uSi17xs7H937nO9/5StUrr7zSnLR8AMKesmPHjixbtiw7duxIfX19ampqKktgt61bty4NDQ3p3bt3+vTp0+aZ5pU2btyYN998M/3793/b5nywLxiT7C0bN25MQ0ND6uvrU1dXV9ndhnHJnrZ58+asWLEiO3bsyMEHH5wuXbpUlhTcT7Iv7cr1cFdqee/s3KNvxIgRVYIOAAAA4IDWOugwzwsAAAAoDUEHAAAAUBqCDgAAAKA0BB0AAABAaQg6AAAAgNIQdAAAAAClIegAAAAASkPQAQAAAJSGoAMAAAAoDUEHAAAAUBqCDgAAAKA0BB0AAABAaQg6AAAAgNIQdAAAAAClIegAAAAASkPQAQAAAJSGoAMAAAAoDUEHAAAAUBqCDgAAAKA0BB0AAABAaQg6AAAAgNIQdAAAAAClIegAAAAASkPQAQAAAJSGoAMAAAAoDUEHAAAAUBqCDgAAAKA0BB0AAABAaQg6AAAAgNIQdAAAAAClIegAAAAASkPQAQAAAJSGoAMAAAAoDUEHAAAAUBqCDgAAAKA0BB0AAABAaQg6AAAAgNIQdAAAAAClIegAAAAASkPQAQAAAJSGoAMAAAAoDUEHAAAAUBqCDgAAAKA0BB0AAABAaQg6AAAAgNIQdAAAAAClIegAAAAASkPQAQAAAJSGoAMAAAAoDUEHAAAAUBqCDgAAAKA0BB0AAABAaQg6AAAAgNIQdAAAAAClIegAAAAASkPQAQAAAJSGoAMAAAAoDUEHAAAAUBqCDgAAAKA0BB0AAABAaQg6AAAAgNIQdAAAAAClIegAAAAASkPQAQAAAJSGoAMAAAAoDUEHAAAAUBoddh7MnTu3dTsAAADAAceMDgAAAKA0/h9Gwca/mKHQdwAAAABJRU5ErkJggg==;" vertex="1" parent="1">
          <mxGeometry width="1082" height="614" as="geometry" />
        </mxCell>
        <mxCell id="cd91eSlOGsGhSM2sVP5u-4" value="&lt;font style=&quot;font-size: 30px;&quot; face=&quot;Times New Roman&quot;&gt;(a) Dfferent epochs with the ATIS dataset.&lt;/font&gt;" style="text;html=1;align=center;verticalAlign=middle;whiteSpace=wrap;rounded=0;" vertex="1" parent="1">
          <mxGeometry x="233" y="640" width="594" height="30" as="geometry" />
        </mxCell>
      </root>
    </mxGraphModel>
  </diagram>
</mxfile>
